<svg width="28" height="28" viewBox="0 0 28 28" fill="none" xmlns="http://www.w3.org/2000/svg">
<path d="M10.1818 0H2.54547C1.14157 0 0 1.14157 0 2.54547V10.1818C0 11.5857 1.14157 12.7273 2.54547 12.7273H10.1818C11.5857 12.7273 12.7273 11.5857 12.7273 10.1818V2.54547C12.7272 1.14157 11.5857 0 10.1818 0ZM11.4545 10.1818C11.4545 10.8834 10.8834 11.4545 10.1818 11.4545H2.54547C1.84388 11.4545 1.27276 10.8834 1.27276 10.1818V2.54547C1.27276 1.84388 1.84388 1.27276 2.54547 1.27276H10.1818C10.8834 1.27276 11.4545 1.84388 11.4545 2.54547V10.1818Z" fill="#0088C7"/>
<path d="M25.4545 0H17.8182C16.4143 0 15.2727 1.14157 15.2727 2.54547V10.1818C15.2727 11.5857 16.4143 12.7273 17.8182 12.7273H25.4545C26.8584 12.7273 28 11.5857 28 10.1818V2.54547C27.9999 1.14157 26.8584 0 25.4545 0ZM26.7272 10.1818C26.7272 10.8834 26.1561 11.4545 25.4545 11.4545H17.8182C17.1166 11.4545 16.5455 10.8834 16.5455 10.1818V2.54547C16.5455 1.84388 17.1166 1.27276 17.8182 1.27276H25.4545C26.1561 1.27276 26.7272 1.84388 26.7272 2.54547V10.1818Z" fill="#0088C7"/>
<path d="M10.1818 15.2727H2.54547C1.14157 15.2727 0 16.4143 0 17.8182V25.4545C0 26.8584 1.14157 28 2.54547 28H10.1818C11.5857 28 12.7273 26.8584 12.7273 25.4545V17.8182C12.7272 16.4143 11.5857 15.2727 10.1818 15.2727ZM11.4545 25.4545C11.4545 26.1561 10.8834 26.7272 10.1818 26.7272H2.54547C1.84388 26.7272 1.27276 26.1561 1.27276 25.4545V17.8182C1.27276 17.1166 1.84388 16.5455 2.54547 16.5455H10.1818C10.8834 16.5455 11.4545 17.1166 11.4545 17.8182V25.4545Z" fill="#0088C7"/>
<path d="M24.8182 21H22.2727V18.4545C22.2727 18.1027 21.9881 17.8181 21.6363 17.8181C21.2846 17.8181 21 18.1027 21 18.4545V21H18.4545C18.1027 21 17.8181 21.2846 17.8181 21.6363C17.8181 21.9881 18.1027 22.2727 18.4545 22.2727H21V24.8181C21 25.1699 21.2847 25.4545 21.6364 25.4545C21.9882 25.4545 22.2728 25.1699 22.2728 24.8181V22.2727H24.8182C25.1699 22.2727 25.4546 21.988 25.4546 21.6363C25.4546 21.2846 25.1699 21 24.8182 21Z" fill="#0088C7"/>
</svg>
