<svg width="28" height="28" viewBox="0 0 28 28" fill="none" xmlns="http://www.w3.org/2000/svg">
<path d="M26.4015 19.0355C26.9753 18.3036 27.2505 17.519 27.2154 16.711C27.1803 15.821 26.7821 15.1242 26.4542 14.6968C26.8348 13.7482 26.9812 12.2551 25.7106 11.0958C24.7796 10.2468 23.1987 9.86617 21.0088 9.97156C19.4688 10.0418 18.1807 10.3287 18.128 10.3404H18.1221C17.8294 10.3931 17.519 10.4575 17.2028 10.5278C17.1794 10.1531 17.2438 9.22208 17.9348 7.12589C18.7545 4.63153 18.7077 2.72271 17.7825 1.44626C16.8105 0.105395 15.2589 0 14.8022 0C14.363 0 13.959 0.181514 13.6721 0.515266C13.0222 1.2706 13.0983 2.66416 13.1803 3.30824C12.4074 5.38101 10.2409 10.4634 8.4082 11.8745C8.37306 11.898 8.34379 11.9272 8.31451 11.9565C7.77583 12.5245 7.4128 13.1393 7.16688 13.678C6.82141 13.4906 6.42911 13.3852 6.00753 13.3852H2.4358C1.08908 13.3852 0 14.4801 0 15.821V25.3358C0 26.6826 1.09494 27.7716 2.4358 27.7716H6.00753C6.52865 27.7716 7.01464 27.6077 7.4128 27.3266L8.78879 27.4906C8.99958 27.5199 12.747 27.9941 16.5939 27.918C17.2907 27.9707 17.9465 28 18.5554 28C19.6035 28 20.5169 27.918 21.2781 27.7541C23.0698 27.3735 24.2936 26.6123 24.9143 25.4939C25.3885 24.6391 25.3885 23.79 25.3124 23.2514C26.4776 22.1974 26.6826 21.0322 26.6416 20.2125C26.6182 19.7382 26.5128 19.3342 26.4015 19.0355ZM2.4358 26.1907C1.96152 26.1907 1.58093 25.8043 1.58093 25.3358V15.8151C1.58093 15.3409 1.96738 14.9603 2.4358 14.9603H6.00753C6.48181 14.9603 6.8624 15.3467 6.8624 15.8151V25.33C6.8624 25.8043 6.47595 26.1849 6.00753 26.1849H2.4358V26.1907ZM24.9026 18.3505C24.6566 18.6081 24.6098 19.0004 24.7972 19.3049C24.7972 19.3107 25.0372 19.7206 25.0665 20.2827C25.1075 21.0498 24.7386 21.729 23.9657 22.3087C23.6905 22.5194 23.5793 22.8825 23.6964 23.2104C23.6964 23.2162 23.9481 23.9891 23.5383 24.721C23.146 25.4237 22.2735 25.9272 20.9502 26.2083C19.8904 26.4366 18.45 26.4776 16.6817 26.3371C16.6583 26.3371 16.629 26.3371 16.5997 26.3371C12.8348 26.4191 9.02886 25.9272 8.98787 25.9214H8.98202L8.39063 25.8511C8.42576 25.6872 8.44333 25.5115 8.44333 25.3358V15.8151C8.44333 15.5634 8.40234 15.3174 8.33208 15.0891C8.43747 14.6968 8.73024 13.8243 9.42116 13.0807C12.0502 10.9962 14.6207 3.96403 14.7319 3.65956C14.7788 3.5366 14.7905 3.40192 14.767 3.26725C14.6675 2.61146 14.7026 1.80928 14.8432 1.56922C15.1535 1.57507 15.9908 1.6629 16.4944 2.35968C17.0916 3.18528 17.0682 4.66081 16.4241 6.61648C15.4404 9.59682 15.3584 11.166 16.1372 11.857C16.5236 12.2024 17.0389 12.22 17.4136 12.0853C17.7708 12.0033 18.1104 11.9331 18.4325 11.8804C18.4559 11.8745 18.4852 11.8687 18.5086 11.8628C20.3061 11.4705 23.5266 11.2304 24.6449 12.2493C25.5935 13.1159 24.9201 14.2635 24.844 14.3864C24.6274 14.7143 24.6918 15.1418 24.9845 15.4053C24.9904 15.4111 25.6052 15.9908 25.6345 16.7696C25.6579 17.2907 25.412 17.8235 24.9026 18.3505Z" fill="#0088C7"/>
</svg>
