<svg width="42" height="42" viewBox="0 0 42 42" fill="none" xmlns="http://www.w3.org/2000/svg">
<circle cx="21" cy="21" r="20.5" stroke="#BDBDC2"/>
<path d="M21.0028 16.0979C18.2959 16.0979 16.1045 18.2917 16.1045 20.9962C16.1045 23.7031 18.2983 25.8945 21.0028 25.8945C23.7097 25.8945 25.9011 23.7007 25.9011 20.9962C25.9011 18.2893 23.7073 16.0979 21.0028 16.0979ZM21.0028 24.1756C19.2457 24.1756 17.8234 22.7526 17.8234 20.9962C17.8234 19.2399 19.2465 17.8168 21.0028 17.8168C22.7591 17.8168 24.1822 19.2399 24.1822 20.9962C24.183 22.7526 22.7599 24.1756 21.0028 24.1756Z" fill="#BDBDC2"/>
<path d="M24.9359 11.5146C23.1796 11.4326 18.8293 11.4366 17.0714 11.5146C15.5266 11.5869 14.164 11.96 13.0655 13.0585C11.2297 14.8944 11.4643 17.3682 11.4643 20.9962C11.4643 24.7093 11.2575 27.1259 13.0655 28.9339C14.9086 30.7762 17.4182 30.5351 21.0032 30.5351C24.6814 30.5351 25.9509 30.5375 27.2514 30.034C29.0197 29.3475 30.3544 27.767 30.4849 24.9281C30.5676 23.1709 30.5628 18.8215 30.4849 17.0635C30.3274 13.7124 28.5289 11.68 24.9359 11.5146ZM27.716 27.7193C26.5125 28.9228 24.8428 28.8154 20.9802 28.8154C17.003 28.8154 15.4081 28.8743 14.2444 27.7073C12.9041 26.3734 13.1467 24.2313 13.1467 20.9835C13.1467 16.5887 12.6957 13.4236 17.1064 13.1977C18.1198 13.1619 18.4181 13.15 20.969 13.15L21.0048 13.1738C25.2437 13.1738 28.5695 12.73 28.7691 17.1399C28.8145 18.1461 28.8248 18.4484 28.8248 20.9954C28.824 24.9265 28.8988 26.5309 27.716 27.7193Z" fill="#BDBDC2"/>
<path d="M26.0958 17.0492C26.728 17.0492 27.2405 16.5368 27.2405 15.9046C27.2405 15.2724 26.728 14.7599 26.0958 14.7599C25.4636 14.7599 24.9512 15.2724 24.9512 15.9046C24.9512 16.5368 25.4636 17.0492 26.0958 17.0492Z" fill="#BDBDC2"/>
</svg>
