<svg width="28" height="28" viewBox="0 0 28 28" fill="none" xmlns="http://www.w3.org/2000/svg">
<path d="M27.5195 10.2172L26.15 8.84773C25.5104 8.20799 24.4695 8.2081 23.8298 8.84773L20.9453 11.7322V2.46094C20.9453 1.10398 19.8413 0 18.4844 0H2.46094C1.10398 0 0 1.10398 0 2.46094V25.5391C0 26.896 1.10398 28 2.46094 28H18.4844C19.8413 28 20.9453 26.896 20.9453 25.5391V19.0294L27.5195 12.5374C28.1591 11.8977 28.1591 10.8568 27.5195 10.2172ZM17.7086 19.92L15.241 21.0716L16.3914 18.6064L22.5151 12.4827L23.869 13.8366L17.7086 19.92ZM19.3047 25.5391C19.3047 25.9914 18.9367 26.3594 18.4844 26.3594H2.46094C2.00862 26.3594 1.64062 25.9914 1.64062 25.5391V2.46094C1.64062 2.00862 2.00862 1.64062 2.46094 1.64062H18.4844C18.9367 1.64062 19.3047 2.00862 19.3047 2.46094V13.3728C14.7558 17.9217 15.0529 17.5949 14.9658 17.7815L12.8003 22.422C12.6544 22.7346 12.7197 23.105 12.9636 23.3489C13.2075 23.5929 13.578 23.6581 13.8905 23.5122L18.531 21.3467C18.7011 21.2673 18.7291 21.2179 19.3047 20.6495V25.5391ZM25.0363 12.6838L23.6751 11.3227L24.9899 10.0078L26.3589 11.3777L25.0363 12.6838Z" fill="#0088C7"/>
<path d="M4.375 6.94531H16.625C17.078 6.94531 17.4453 6.57803 17.4453 6.125C17.4453 5.67197 17.078 5.30469 16.625 5.30469H4.375C3.92197 5.30469 3.55469 5.67197 3.55469 6.125C3.55469 6.57803 3.92197 6.94531 4.375 6.94531Z" fill="#0088C7"/>
<path d="M4.375 11.3203H14C14.453 11.3203 14.8203 10.953 14.8203 10.5C14.8203 10.047 14.453 9.67969 14 9.67969H4.375C3.92197 9.67969 3.55469 10.047 3.55469 10.5C3.55469 10.953 3.92197 11.3203 4.375 11.3203Z" fill="#0088C7"/>
<path d="M11.375 14.0547H4.375C3.92197 14.0547 3.55469 14.422 3.55469 14.875C3.55469 15.328 3.92197 15.6953 4.375 15.6953H11.375C11.828 15.6953 12.1953 15.328 12.1953 14.875C12.1953 14.422 11.828 14.0547 11.375 14.0547Z" fill="#0088C7"/>
</svg>
