<svg width="27" height="28" viewBox="0 0 27 28" fill="none" xmlns="http://www.w3.org/2000/svg">
<path d="M21.3281 18.1562C19.7074 18.1562 18.2673 18.9439 17.37 20.1562L9.64425 16.2081C9.77386 15.7677 9.84375 15.3021 9.84375 14.8203C9.84375 14.1678 9.71584 13.5448 9.48423 12.9744L17.5813 8.10955C18.4847 9.16995 19.8291 9.84375 21.3281 9.84375C24.042 9.84375 26.25 7.6358 26.25 4.92188C26.25 2.20795 24.042 0 21.3281 0C18.6142 0 16.4062 2.20795 16.4062 4.92188C16.4062 5.54914 16.5244 6.14923 16.7393 6.70141L8.62203 11.5784C7.71925 10.5493 6.39521 9.89844 4.92188 9.89844C2.20795 9.89844 0 12.1064 0 14.8203C0 17.5342 2.20795 19.7422 4.92188 19.7422C6.56917 19.7422 8.02987 18.9287 8.92374 17.6823L16.627 21.619C16.4836 22.0802 16.4062 22.5703 16.4062 23.0781C16.4062 25.792 18.6142 28 21.3281 28C24.042 28 26.25 25.792 26.25 23.0781C26.25 20.3642 24.042 18.1562 21.3281 18.1562ZM21.3281 1.64062C23.1374 1.64062 24.6094 3.11259 24.6094 4.92188C24.6094 6.73116 23.1374 8.20312 21.3281 8.20312C19.5188 8.20312 18.0469 6.73116 18.0469 4.92188C18.0469 3.11259 19.5188 1.64062 21.3281 1.64062ZM4.92188 18.1016C3.11259 18.1016 1.64062 16.6296 1.64062 14.8203C1.64062 13.011 3.11259 11.5391 4.92188 11.5391C6.73116 11.5391 8.20312 13.011 8.20312 14.8203C8.20312 16.6296 6.73116 18.1016 4.92188 18.1016ZM21.3281 26.3594C19.5188 26.3594 18.0469 24.8874 18.0469 23.0781C18.0469 21.2688 19.5188 19.7969 21.3281 19.7969C23.1374 19.7969 24.6094 21.2688 24.6094 23.0781C24.6094 24.8874 23.1374 26.3594 21.3281 26.3594Z" fill="#0088C7"/>
</svg>
