<svg width="42" height="42" viewBox="0 0 42 42" fill="none" xmlns="http://www.w3.org/2000/svg">
<circle cx="21" cy="21" r="20.5" stroke="#BDBDC2"/>
<path d="M21.8945 11.4545C22.9826 13.0305 23.8306 14.7593 24.4105 16.5845C25.7376 16.3763 27.0158 15.9285 28.1828 15.2631L28.5253 15.0507C26.9007 12.9947 24.504 11.6948 21.8945 11.4545Z" fill="#BDBDC2"/>
<path d="M23.4074 18.123C22.6115 18.2141 21.811 18.2599 21.0099 18.26C20.2088 18.2599 19.4084 18.2141 18.6125 18.123C18.4434 18.8432 18.3357 19.5765 18.2905 20.315H23.7294C23.6842 19.5765 23.5765 18.8432 23.4074 18.123Z" fill="#BDBDC2"/>
<path d="M21.01 25.1099C20.3351 25.1105 19.6606 25.1455 18.9893 25.2147C19.4831 26.6895 20.1622 28.0956 21.01 29.3994C21.8579 28.0956 22.5368 26.6894 23.0308 25.2147C22.3594 25.1455 21.6849 25.1105 21.01 25.1099Z" fill="#BDBDC2"/>
<path d="M25.0941 21.685C25.0523 22.4932 24.9431 23.2966 24.7673 24.0866C26.2258 24.3289 27.6284 24.8329 28.9075 25.5744L29.2945 25.8155C30.0291 24.5543 30.4641 23.1411 30.5659 21.685H25.0941Z" fill="#BDBDC2"/>
<path d="M29.2945 16.1851L28.9075 16.4263C27.6286 17.1689 26.226 17.6741 24.7673 17.9175C24.9428 18.7062 25.0521 19.5081 25.0941 20.315H30.5659C30.464 18.8591 30.029 17.4462 29.2945 16.1851Z" fill="#BDBDC2"/>
<path d="M18.2905 21.685C18.3361 22.4235 18.4443 23.1568 18.6138 23.877C20.207 23.695 21.8156 23.695 23.4088 23.877C23.5775 23.1567 23.6847 22.4234 23.7294 21.685H18.2905Z" fill="#BDBDC2"/>
<path d="M13.113 16.4263L12.7259 16.1851C11.9914 17.4462 11.5565 18.8591 11.4546 20.315H16.9264C16.9683 19.5081 17.0776 18.7061 17.2531 17.9175C15.7944 17.6741 14.3918 17.1689 13.113 16.4263Z" fill="#BDBDC2"/>
<path d="M17.6099 25.4161C16.2829 25.6244 15.0047 26.0719 13.8376 26.7368L13.4951 26.9499C15.1196 29.006 17.5165 30.3057 20.1259 30.5454C19.0376 28.9698 18.1897 27.2411 17.6099 25.4161Z" fill="#BDBDC2"/>
<path d="M21.01 12.6013C20.1623 13.9049 19.4833 15.3108 18.9893 16.7852C19.6606 16.8548 20.3351 16.8898 21.01 16.89C21.6849 16.8898 22.3594 16.8548 23.0308 16.7852C22.5367 15.3108 21.8577 13.9049 21.01 12.6013Z" fill="#BDBDC2"/>
<path d="M28.1829 26.7368C27.0158 26.0719 25.7376 25.6244 24.4106 25.4161C23.8302 27.2413 22.9816 28.9699 21.8926 30.5454C24.502 30.3057 26.8988 29.006 28.5233 26.9498L28.1829 26.7368Z" fill="#BDBDC2"/>
<path d="M13.4973 15.0508L13.8378 15.2631C15.0047 15.9286 16.2829 16.3763 17.61 16.5845C18.1906 14.7592 19.0392 13.0304 20.1281 11.4546C17.5187 11.6948 15.122 12.9947 13.4973 15.0508Z" fill="#BDBDC2"/>
<path d="M16.9264 21.685H11.4546C11.5563 23.1411 11.9913 24.5543 12.726 25.8155L13.113 25.5744C14.3921 24.8329 15.7947 24.3289 17.2531 24.0866C17.0774 23.2966 16.9681 22.4932 16.9264 21.685Z" fill="#BDBDC2"/>
</svg>
