<?xml version="1.0" encoding="UTF-8" standalone="no"?>
<!-- Created with Inkscape (http://www.inkscape.org/) -->

<svg
   xmlns:dc="http://purl.org/dc/elements/1.1/"
   xmlns:cc="http://creativecommons.org/ns#"
   xmlns:rdf="http://www.w3.org/1999/02/22-rdf-syntax-ns#"
   xmlns:svg="http://www.w3.org/2000/svg"
   xmlns="http://www.w3.org/2000/svg"
   xmlns:sodipodi="http://sodipodi.sourceforge.net/DTD/sodipodi-0.dtd"
   xmlns:inkscape="http://www.inkscape.org/namespaces/inkscape"
   width="210mm"
   height="297mm"
   viewBox="0 0 210 297"
   version="1.1"
   id="svg1166"
   inkscape:version="0.92.3 (2405546, 2018-03-11)"
   sodipodi:docname="logo-inkscape.svg">
  <defs
     id="defs1160" />
  <sodipodi:namedview
     id="base"
     pagecolor="#ffffff"
     bordercolor="#666666"
     borderopacity="1.0"
     inkscape:pageopacity="0.0"
     inkscape:pageshadow="2"
     inkscape:zoom="0.49497475"
     inkscape:cx="33.803146"
     inkscape:cy="570.20471"
     inkscape:document-units="mm"
     inkscape:current-layer="layer1"
     showgrid="false"
     inkscape:window-width="1920"
     inkscape:window-height="1025"
     inkscape:window-x="1920"
     inkscape:window-y="67"
     inkscape:window-maximized="1" />
  <metadata
     id="metadata1163">
    <rdf:RDF>
      <cc:Work
         rdf:about="">
        <dc:format>image/svg+xml</dc:format>
        <dc:type
           rdf:resource="http://purl.org/dc/dcmitype/StillImage" />
        <dc:title></dc:title>
      </cc:Work>
    </rdf:RDF>
  </metadata>
  <g
     inkscape:label="Layer 1"
     inkscape:groupmode="layer"
     id="layer1">
    <g
       id="g1823"
       transform="translate(-121.70833,-21.922619)">
      <g
         transform="matrix(0.35277777,0,0,-0.35277777,191.14276,265.05412)"
         id="g94">
        <path
           inkscape:connector-curvature="0"
           id="path96"
           style="fill:#c7c6c5;fill-opacity:1;fill-rule:nonzero;stroke:none"
           d="m 0,0 -4.367,10.489 c -0.854,2.136 -1.661,4.652 -2.041,6.313 -0.094,0.427 -0.522,0.427 -0.617,0 -0.332,-1.661 -1.139,-4.129 -2.04,-6.313 L -13.385,0 Z m -14.571,-2.895 -3.228,-7.974 c -0.095,-0.238 -0.237,-0.333 -0.522,-0.333 h -2.468 c -0.285,0 -0.427,0.19 -0.332,0.475 l 9.777,23.637 c 1.044,2.611 2.041,5.553 2.753,8.164 0.048,0.285 0.237,0.379 0.475,0.379 h 2.8 c 0.237,0 0.427,-0.094 0.475,-0.379 0.712,-2.611 1.756,-5.506 2.8,-8.164 l 9.73,-23.637 c 0.095,-0.285 -0.047,-0.475 -0.332,-0.475 h -2.42 c -0.285,0 -0.428,0.095 -0.523,0.333 l -3.228,7.974 z" />
      </g>
      <g
         transform="matrix(0.35277777,0,0,-0.35277777,199.49775,257.63644)"
         id="g98">
        <path
           inkscape:connector-curvature="0"
           id="path100"
           style="fill:#c7c6c5;fill-opacity:1;fill-rule:nonzero;stroke:none"
           d="m 0,0 c 0,0.284 0.142,0.427 0.427,0.427 h 21.121 c 0.238,0 0.38,-0.095 0.475,-0.285 l 0.19,-0.332 c 0.142,-0.237 0.142,-0.427 -0.048,-0.617 -1.138,-1.471 -2.04,-2.848 -3.084,-4.651 L 5.933,-26.01 c -0.57,-0.855 -1.234,-1.804 -1.946,-2.753 -0.38,-0.475 -0.237,-0.76 0.285,-0.712 1.186,0.047 2.278,0.095 3.275,0.095 h 14.049 c 0.332,0 0.474,-0.19 0.38,-0.475 l -0.57,-1.993 c -0.047,-0.285 -0.237,-0.38 -0.475,-0.38 H -0.095 c -0.238,0 -0.38,0.095 -0.475,0.332 l -0.19,0.333 c -0.094,0.237 -0.094,0.427 0.048,0.616 1.281,1.709 2.231,3.275 3.227,4.984 l 12.958,20.22 c 0.522,0.806 1.187,1.993 1.946,2.752 0.333,0.428 0.285,0.713 -0.237,0.713 -1.234,-0.095 -2.278,-0.143 -3.228,-0.143 H 0.427 C 0.142,-2.421 0,-2.278 0,-1.994 Z" />
      </g>
      <g
         transform="matrix(0.35277777,0,0,-0.35277777,220.14276,265.05412)"
         id="g102">
        <path
           inkscape:connector-curvature="0"
           id="path104"
           style="fill:#c7c6c5;fill-opacity:1;fill-rule:nonzero;stroke:none"
           d="m 0,0 -4.367,10.489 c -0.854,2.136 -1.661,4.652 -2.041,6.313 -0.095,0.427 -0.522,0.427 -0.617,0 -0.332,-1.661 -1.139,-4.129 -2.041,-6.313 L -13.385,0 Z m -14.571,-2.895 -3.228,-7.974 c -0.095,-0.238 -0.237,-0.333 -0.522,-0.333 h -2.468 c -0.285,0 -0.428,0.19 -0.332,0.475 l 9.777,23.637 c 1.044,2.611 2.041,5.553 2.753,8.164 0.047,0.285 0.237,0.379 0.475,0.379 h 2.8 c 0.237,0 0.427,-0.094 0.475,-0.379 0.712,-2.611 1.756,-5.506 2.8,-8.164 l 9.73,-23.637 c 0.095,-0.285 -0.047,-0.475 -0.332,-0.475 H 4.936 c -0.285,0 -0.427,0.095 -0.522,0.333 l -3.228,7.974 z" />
      </g>
      <g
         transform="matrix(0.35277777,0,0,-0.35277777,237.50599,268.85519)"
         id="g106">
        <path
           inkscape:connector-curvature="0"
           id="path108"
           style="fill:#c7c6c5;fill-opacity:1;fill-rule:nonzero;stroke:none"
           d="M 0,0 C 0,-0.284 -0.143,-0.427 -0.427,-0.427 H -3.37 c -0.237,0 -0.38,0.095 -0.474,0.332 -0.665,1.424 -1.757,3.228 -2.658,4.652 l -13.528,19.84 c -0.617,0.997 -1.234,2.088 -1.566,2.8 -0.19,0.427 -0.665,0.285 -0.57,-0.19 0.19,-1.186 0.333,-2.8 0.333,-4.509 V 0 c 0,-0.284 -0.143,-0.427 -0.428,-0.427 h -2.325 c -0.285,0 -0.427,0.143 -0.427,0.427 v 31.801 c 0,0.285 0.142,0.427 0.427,0.427 h 2.99 c 0.237,0 0.38,-0.095 0.475,-0.332 0.712,-1.377 1.756,-3.227 2.658,-4.604 L -4.936,7.452 c 0.664,-0.997 1.234,-2.089 1.566,-2.848 0.19,-0.427 0.664,-0.237 0.57,0.19 -0.238,1.187 -0.333,2.848 -0.333,4.509 v 22.498 c 0,0.285 0.143,0.427 0.427,0.427 h 2.279 C -0.143,32.228 0,32.086 0,31.801 Z" />
      </g>
      <g
         transform="matrix(0.35277777,0,0,-0.35277777,245.29143,268.33608)"
         id="g110">
        <path
           inkscape:connector-curvature="0"
           id="path112"
           style="fill:#c7c6c5;fill-opacity:1;fill-rule:nonzero;stroke:none"
           d="m 0,0 c 0,-1.471 -0.854,-2.373 -2.326,-2.373 -1.471,0 -2.278,0.902 -2.278,2.373 0,1.471 0.807,2.373 2.278,2.373 C -0.854,2.373 0,1.471 0,0" />
      </g>
      <g
         transform="matrix(0.35277777,0,0,-0.35277777,254.96918,263.07828)"
         id="g114">
        <path
           inkscape:connector-curvature="0"
           id="path116"
           style="fill:#c7c6c5;fill-opacity:1;fill-rule:nonzero;stroke:none"
           d="m 0,0 c 6.218,0 9.777,2.515 9.777,6.882 0,3.844 -2.61,6.123 -6.882,6.123 h -9.73 L -6.835,0 Z m 2.895,15.853 c 6.313,0 10.062,-3.275 10.062,-8.828 0,-4.367 -2.657,-7.167 -6.976,-8.591 -0.57,-0.19 -0.618,-0.475 -0.048,-0.76 2.326,-1.139 3.844,-3.37 4.889,-5.838 l 3.464,-8.116 c 0.143,-0.333 0,-0.522 -0.284,-0.522 h -2.468 c -0.238,0 -0.38,0.094 -0.475,0.332 l -3.085,7.12 c -1.852,4.461 -4.652,6.502 -9.351,6.502 h -5.458 v -13.527 c 0,-0.285 -0.142,-0.427 -0.427,-0.427 h -2.279 c -0.284,0 -0.426,0.142 -0.426,0.427 v 31.801 c 0,0.284 0.142,0.427 0.426,0.427 z" />
      </g>
      <g
         transform="matrix(0.35277777,0,0,-0.35277777,274.42558,264.48477)"
         id="g118">
        <path
           inkscape:connector-curvature="0"
           id="path120"
           style="fill:#c7c6c5;fill-opacity:1;fill-rule:nonzero;stroke:none"
           d="m 0,0 c 0,-8.354 -4.462,-13.29 -12.104,-13.29 -7.641,0 -12.103,4.936 -12.103,13.29 v 19.413 c 0,0.284 0.143,0.427 0.427,0.427 h 2.279 c 0.284,0 0.427,-0.143 0.427,-0.427 V 0 c 0,-6.55 3.275,-10.347 8.97,-10.347 5.696,0 8.971,3.797 8.971,10.347 v 19.413 c 0,0.284 0.143,0.427 0.427,0.427 h 2.279 C -0.142,19.84 0,19.697 0,19.413 Z" />
      </g>
      <g
         transform="matrix(0.35277777,0,0,-0.35277777,177.41478,140.65903)"
         id="g122">
        <path
           inkscape:connector-curvature="0"
           id="path124"
           style="fill:#c7c6c5;fill-opacity:1;fill-rule:nonzero;stroke:none"
           d="M 0,0 C -4.247,3.341 26.06,57.894 82.408,86.988 82.167,88.04 81.955,89.099 81.773,90.166 30.331,71.082 -11.4,27.272 -26.122,-28.804 c 0,0 18.47,11.591 18.474,11.594 C -5.434,-11.301 -2.878,-5.559 0,0" />
      </g>
      <g
         transform="matrix(0.35277777,0,0,-0.35277777,280.76219,142.42684)"
         id="g126">
        <path
           inkscape:connector-curvature="0"
           id="path128"
           style="fill:#c7c6c5;fill-opacity:1;fill-rule:nonzero;stroke:none"
           d="M 0,0 C -0.189,0.124 -3.28,2.162 -7.97,5.281 2.208,-14.315 8.453,-36.27 9.731,-59.525 c 4.558,0.868 10.462,-11.827 14.154,-15.676 3.635,93.035 -66.105,171.582 -157.151,180.4 1.176,-2.001 2.472,-3.972 3.799,-5.887 C -122.468,98.413 -38.687,88.215 0,0" />
      </g>
      <g
         transform="matrix(0.35277777,0,0,-0.35277777,266.51025,200.8039)"
         id="g130">
        <path
           inkscape:connector-curvature="0"
           id="path132"
           style="fill:#c7c6c5;fill-opacity:1;fill-rule:nonzero;stroke:none"
           d="m 0,0 c -0.036,-0.021 -0.064,-0.046 -0.101,-0.066 l 0.077,-0.063 C -0.017,-0.086 -0.008,-0.043 0,0" />
      </g>
      <g
         transform="matrix(0.35277777,0,0,-0.35277777,218.86181,191.74637)"
         id="g134">
        <path
           inkscape:connector-curvature="0"
           id="path136"
           style="fill:#c7c6c5;fill-opacity:1;fill-rule:nonzero;stroke:none"
           d="M 0,0 C 2.113,0.498 37.913,45.065 44.208,53.276 41.364,55.103 39.729,52.372 36.98,50.413 34.234,51.484 6.748,68.659 7.656,76.123 L 26.264,61.382 6.747,78.163 C 3.488,82.16 -2.626,87.286 -6.124,91.815 L 35.372,58.084 -8.745,97.892 c 0.046,1.508 -0.78,2.81 -2.363,3.357 -1.827,-0.488 -46.987,-51.515 -47.111,-52.961 8.243,-9.665 9.22,-11.594 13.764,-13.363 0.2,-0.262 0.061,-0.015 0.054,0.046 l 0.015,0.008 c 4.554,-2.067 2.563,2.439 1.367,6.609 l 30.105,-25.993 -30.502,27.528 c -0.197,0.89 -0.308,1.719 -0.252,2.411 L -16.073,22.95 -41.572,47.494 c 0.63,0.01 1.432,-0.131 2.429,-0.444 L -3.871,16.59 -35.638,45.607 c 2.937,-1.424 6.869,-3.735 12.098,-7.218 18.241,-16.528 16.969,-15.939 18.013,-14.71 -0.978,1.185 -1.94,2.347 -2.987,3.633 C -6.917,31.328 7.631,23.81 5.565,16.497 -2.81,14.654 8.419,10.857 3.51,10.138 4.527,2.209 -2.62,4.527 0,0" />
      </g>
      <g
         transform="matrix(0.35277777,0,0,-0.35277777,253.96672,201.35833)"
         id="g138">
        <path
           inkscape:connector-curvature="0"
           id="path140"
           style="fill:#c7c6c5;fill-opacity:1;fill-rule:nonzero;stroke:none"
           d="M 0,0 -9.143,8.983 C -7.53,8.044 -5.847,7.054 -4.162,6.058 -3.089,3.925 0.027,3.029 0,0 m -2.875,-0.038 c -0.023,-0.06 -0.043,-0.115 -0.065,-0.174 l -6.727,6.608 c -0.382,0.545 -0.598,1.014 -0.572,1.437 l 10.236,-7.925 c -0.003,-0.106 0,-0.208 -0.011,-0.32 -1.241,0.161 -2.196,0.296 -2.861,0.374 m -4.904,3.027 4.68,-3.623 c -2.545,-6.902 0.366,-5.204 -3.12,-9.695 -0.233,-0.301 -0.103,-0.893 -0.103,-1.376 1.905,0.411 22.689,27.124 21.988,30.359 -1.236,-0.717 -2.248,-1.304 -3.452,-1.999 -9.44,3.66 -8.983,9.32 -14.289,10.623 -3.978,5.316 -6.653,7.674 -8.629,9.827 l 23.836,-17.821 -26.997,24.069 -0.468,-0.558 c -1.469,-0.142 1.392,2.945 -25.25,-29.577 0.877,-0.955 1.626,-1.769 2.281,-2.472 l -0.045,-0.051 0.362,-0.29 c 3.027,-3.237 3.748,-3.774 4.48,-3.574 L -9.487,-11.532 -29.673,7.685 c 1.376,0.047 2.382,1.41 3.086,0.625 L -13.435,-1.874 -24.916,9.407 c 5.704,-3.56 1.243,0.618 6.784,-3.113 l 12.226,-9.466 -6.79,6.671 c 0.368,0.072 0.756,0.23 1.176,0.513 1.631,1.13 2.303,-1.613 3.741,-1.023" />
      </g>
      <g
         transform="matrix(0.35277777,0,0,-0.35277777,266.50202,200.85005)"
         id="g142">
        <path
           inkscape:connector-curvature="0"
           id="path144"
           style="fill:#c7c6c5;fill-opacity:1;fill-rule:nonzero;stroke:none"
           d="M 0,0 -0.078,0.065 C -0.079,0.018 -0.075,-0.029 -0.074,-0.076 -0.049,-0.051 -0.026,-0.024 0,0" />
      </g>
      <g
         transform="matrix(0.35277777,0,0,-0.35277777,268.4515,205.52305)"
         id="g146">
        <path
           inkscape:connector-curvature="0"
           id="path148"
           style="fill:#c7c6c5;fill-opacity:1;fill-rule:nonzero;stroke:none"
           d="m 0,0 c -13.242,0 -178.587,-104.272 -212.588,-46.292 -0.802,1.367 -5.929,2.208 -5.929,-0.901 0,-19.606 67.38,-41.916 91.895,-40.84 l -2.473,-0.327 c -1.128,-0.123 -2.256,-0.262 -3.386,-0.372 -1.13,-0.096 -2.26,-0.21 -3.392,-0.292 -1.133,-0.067 -2.265,-0.151 -3.398,-0.206 -1.133,-0.043 -2.266,-0.104 -3.4,-0.132 -1.134,-0.011 -2.268,-0.038 -3.402,-0.036 l -3.401,0.065 -3.397,0.169 -3.39,0.274 -3.38,0.38 -3.364,0.501 -3.343,0.625 c -1.111,0.228 -2.211,0.505 -3.32,0.746 -1.106,0.255 -2.193,0.58 -3.292,0.866 -2.18,0.629 -4.346,1.319 -6.471,2.125 -1.079,0.363 -2.123,0.812 -3.176,1.241 -0.525,0.219 -1.056,0.424 -1.577,0.654 l -1.548,0.719 -1.55,0.719 c -0.514,0.246 -1.012,0.522 -1.519,0.782 -1.006,0.536 -2.035,1.032 -3.008,1.628 l -1.478,0.863 c -0.494,0.287 -0.997,0.559 -1.472,0.876 l -2.891,1.846 2.774,-2.024 c 0.924,-0.678 1.904,-1.273 2.861,-1.904 0.95,-0.645 1.959,-1.19 2.946,-1.776 0.498,-0.285 0.987,-0.587 1.492,-0.859 l 1.527,-0.796 1.528,-0.798 c 0.515,-0.255 1.04,-0.488 1.56,-0.733 1.043,-0.483 2.079,-0.986 3.152,-1.403 2.123,-0.888 4.294,-1.661 6.484,-2.373 1.104,-0.328 2.198,-0.694 3.312,-0.99 1.115,-0.288 2.228,-0.59 3.351,-0.85 l 3.383,-0.717 3.408,-0.592 3.427,-0.469 3.443,-0.341 3.451,-0.222 3.456,-0.116 c 1.152,-0.019 2.305,-0.008 3.458,-0.014 1.152,0.012 2.303,0.057 3.455,0.083 1.151,0.046 2.3,0.129 3.451,0.191 1.149,0.078 2.295,0.187 3.443,0.279 1.146,0.106 2.289,0.241 3.434,0.361 l 3.425,0.437 3.413,0.509 3.399,0.585 3.385,0.657 3.372,0.715 c 2.242,0.499 4.479,1.022 6.704,1.582 0.339,0.084 0.675,0.175 1.013,0.261 4.097,-0.199 7.935,-0.789 11.45,-1.658 -0.724,-0.224 -1.452,-0.433 -2.174,-0.662 -2.287,-0.743 -4.614,-1.35 -6.925,-1.983 -1.153,-0.322 -2.325,-0.565 -3.482,-0.851 -1.159,-0.274 -2.313,-0.563 -3.476,-0.783 -4.629,-1.002 -9.233,-1.742 -13.706,-2.336 -4.478,-0.55 -8.828,-0.909 -12.962,-1.121 -4.135,-0.15 -8.051,-0.194 -11.665,-0.076 -0.904,0.02 -1.786,0.084 -2.65,0.122 -0.865,0.04 -1.709,0.087 -2.53,0.154 -0.822,0.061 -1.623,0.119 -2.401,0.177 -0.777,0.08 -1.531,0.158 -2.262,0.233 -0.366,0.038 -0.726,0.076 -1.079,0.113 -0.353,0.047 -0.699,0.094 -1.039,0.14 -0.681,0.093 -1.337,0.182 -1.968,0.267 -1.252,0.219 -2.412,0.388 -3.445,0.605 -2.071,0.414 -3.689,0.797 -4.782,1.098 -1.09,0.316 -1.671,0.484 -1.671,0.484 0,0 0.569,-0.206 1.637,-0.592 1.076,-0.363 2.664,-0.882 4.728,-1.385 1.029,-0.268 2.183,-0.493 3.433,-0.774 0.63,-0.117 1.285,-0.238 1.965,-0.364 0.34,-0.063 0.686,-0.127 1.039,-0.193 0.353,-0.054 0.713,-0.109 1.079,-0.165 2.922,-0.494 6.248,-0.844 9.886,-1.111 3.639,-0.251 7.593,-0.344 11.775,-0.283 4.18,0.109 8.589,0.349 13.127,0.854 1.135,0.118 2.274,0.285 3.424,0.427 0.575,0.074 1.152,0.149 1.731,0.223 0.576,0.092 1.155,0.183 1.735,0.275 1.159,0.189 2.326,0.378 3.499,0.569 1.165,0.231 2.336,0.463 3.512,0.696 1.18,0.217 2.349,0.504 3.525,0.775 1.174,0.284 2.362,0.524 3.532,0.845 2.343,0.63 4.705,1.23 7.025,1.976 1.16,0.374 2.337,0.693 3.48,1.111 0.527,0.184 1.052,0.367 1.578,0.55 2.824,-0.9 5.389,-1.977 7.651,-3.161 l -0.87,-0.33 c -0.977,-0.333 -1.953,-0.666 -2.928,-0.998 l -1.462,-0.492 -1.473,-0.445 c -0.983,-0.292 -1.956,-0.605 -2.938,-0.876 -3.927,-1.078 -7.819,-2.058 -11.63,-2.83 -3.816,-0.729 -7.519,-1.404 -11.059,-1.873 -3.54,-0.462 -6.898,-0.855 -10.011,-1.105 -3.112,-0.263 -5.973,-0.431 -8.513,-0.548 -2.54,-0.095 -4.76,-0.174 -6.588,-0.187 -1.829,-0.022 -3.269,-0.037 -4.25,-0.03 -0.982,0.006 -1.506,0.009 -1.506,0.009 0,0 0.52,-0.062 1.496,-0.178 0.488,-0.061 1.09,-0.124 1.799,-0.197 0.709,-0.08 1.524,-0.157 2.44,-0.224 1.829,-0.156 4.055,-0.3 6.614,-0.385 1.279,-0.047 2.641,-0.07 4.078,-0.094 1.437,0.001 2.949,-0.003 4.526,0.047 3.155,0.056 6.573,0.247 10.179,0.582 3.609,0.318 7.401,0.819 11.303,1.487 1.944,0.369 3.928,0.712 5.915,1.169 0.995,0.224 2.004,0.416 3.001,0.68 0.998,0.258 2.002,0.517 3.01,0.778 1.005,0.269 2.004,0.579 3.011,0.869 l 1.512,0.443 1.501,0.49 c 1.001,0.332 2.003,0.664 3.007,0.997 l 2.978,1.102 c 0.097,0.035 0.192,0.076 0.288,0.112 1.744,-1.164 3.218,-2.383 4.389,-3.606 -0.868,-0.339 -1.738,-0.678 -2.609,-1.019 -1.044,-0.426 -2.115,-0.787 -3.183,-1.157 -1.072,-0.358 -2.127,-0.772 -3.215,-1.084 -4.3,-1.419 -8.693,-2.538 -13.045,-3.499 -4.356,-0.949 -8.7,-1.607 -12.914,-2.127 -4.219,-0.498 -8.318,-0.782 -12.21,-0.964 -3.894,-0.136 -7.581,-0.152 -10.982,-0.041 -1.7,0.042 -3.328,0.147 -4.878,0.215 -1.546,0.112 -3.017,0.183 -4.394,0.313 -2.757,0.232 -5.155,0.507 -7.126,0.758 -0.985,0.133 -1.864,0.251 -2.629,0.354 -0.764,0.116 -1.413,0.215 -1.939,0.295 -1.053,0.163 -1.615,0.249 -1.615,0.249 0,0 0.558,-0.106 1.605,-0.305 0.524,-0.098 1.17,-0.219 1.929,-0.362 0.763,-0.125 1.639,-0.269 2.621,-0.431 1.966,-0.302 4.36,-0.639 7.116,-0.942 1.377,-0.166 2.849,-0.276 4.398,-0.428 1.552,-0.107 3.184,-0.228 4.89,-0.3 3.411,-0.165 7.113,-0.207 11.028,-0.132 3.913,0.121 8.042,0.329 12.288,0.826 4.244,0.501 8.62,1.141 13.013,2.074 1.104,0.204 2.194,0.495 3.297,0.739 l 1.655,0.384 c 0.551,0.133 1.096,0.29 1.645,0.434 1.096,0.3 2.2,0.579 3.295,0.897 l 3.27,1.006 c 1.095,0.32 2.157,0.742 3.236,1.109 1.075,0.379 2.152,0.748 3.202,1.184 0.989,0.392 1.975,0.783 2.959,1.173 1.66,-1.95 2.53,-3.878 2.471,-5.565 -1.317,-0.551 -2.65,-1.06 -3.972,-1.586 -1.753,-0.618 -3.479,-1.295 -5.234,-1.842 -1.739,-0.594 -3.493,-1.091 -5.218,-1.616 -1.74,-0.464 -3.456,-0.943 -5.164,-1.337 -3.409,-0.809 -6.735,-1.495 -9.919,-1.985 -0.794,-0.137 -1.581,-0.246 -2.358,-0.349 -0.776,-0.101 -1.539,-0.218 -2.293,-0.305 -0.755,-0.092 -1.496,-0.183 -2.223,-0.272 -0.73,-0.073 -1.447,-0.145 -2.148,-0.215 -2.81,-0.251 -5.397,-0.44 -7.696,-0.546 -2.299,-0.108 -4.31,-0.17 -5.968,-0.209 -3.321,-0.057 -5.218,-0.09 -5.218,-0.09 0,0 0.47,-0.064 1.353,-0.185 0.884,-0.114 2.18,-0.286 3.837,-0.448 1.656,-0.158 3.672,-0.356 5.993,-0.458 1.16,-0.07 2.396,-0.103 3.701,-0.146 0.653,-0.026 1.322,-0.012 2.008,-0.018 0.685,-0.003 1.387,-0.004 2.104,0.016 33.326,0.298 69.724,19.988 84.013,39.313 10.3,10.839 6.357,33.495 25.608,74.459 C 1.052,-0.392 0.812,0 0,0" />
      </g>
      <g
         transform="matrix(0.35277777,0,0,-0.35277777,239.16382,151.47728)"
         id="g150">
        <path
           inkscape:connector-curvature="0"
           id="path152"
           style="fill:#c7c6c5;fill-opacity:1;fill-rule:nonzero;stroke:none"
           d="m 0,0 c -48.924,53.197 -65.447,80.448 -76.189,99.138 -8.375,-10.888 -31.07,-40.389 -27.025,-56.682 0.779,0.291 1.371,0.514 2.098,0.799 3.605,-35.816 51.376,-49.992 91.281,-63.572 3.993,-3.507 7.939,-7.048 11.782,-10.601 4.717,-4.405 9.306,-8.797 13.622,-13.171 4.294,-4.394 8.432,-8.659 12.181,-12.863 1.912,-2.069 3.667,-4.172 5.415,-6.164 0.847,-1.018 1.68,-2.02 2.497,-3.003 0.815,-0.985 1.625,-1.944 2.374,-2.918 1.521,-1.93 2.991,-3.772 4.317,-5.578 0.674,-0.895 1.33,-1.767 1.969,-2.614 0.615,-0.865 1.212,-1.705 1.79,-2.52 0.577,-0.815 1.135,-1.605 1.674,-2.367 0.515,-0.778 1.013,-1.528 1.491,-2.248 0.478,-0.721 0.936,-1.412 1.374,-2.073 0.434,-0.663 0.817,-1.315 1.198,-1.923 0.752,-1.223 1.424,-2.314 2.009,-3.264 0.554,-0.967 1.026,-1.79 1.409,-2.457 0.766,-1.335 1.174,-2.048 1.174,-2.048 0,0 -0.382,0.727 -1.1,2.088 -0.359,0.682 -0.801,1.522 -1.322,2.51 -0.538,0.978 -1.192,2.082 -1.911,3.328 -0.364,0.619 -0.731,1.282 -1.148,1.959 -0.421,0.673 -0.862,1.378 -1.322,2.113 -0.459,0.735 -0.938,1.5 -1.434,2.293 -0.52,0.779 -1.058,1.585 -1.614,2.418 -0.559,0.832 -1.135,1.691 -1.728,2.575 -0.618,0.867 -1.253,1.759 -1.905,2.675 -1.283,1.848 -2.741,3.709 -4.231,5.675 -0.737,0.99 -1.534,1.965 -2.335,2.967 -0.804,1 -1.623,2.019 -2.457,3.055 -1.721,2.027 -3.45,4.168 -5.334,6.275 -3.694,4.281 -7.762,8.642 -12.068,13.056 -4.307,4.414 -8.887,8.844 -13.594,13.287 -2.956,2.762 -5.974,5.517 -9.026,8.255 2.254,-0.777 4.476,-1.555 6.658,-2.336 0.916,-0.807 1.833,-1.613 2.741,-2.429 2.656,-2.321 5.229,-4.733 7.822,-7.102 2.541,-2.425 5.106,-4.807 7.552,-7.269 2.491,-2.418 4.866,-4.913 7.235,-7.354 1.173,-1.232 2.307,-2.487 3.45,-3.716 0.57,-0.616 1.137,-1.231 1.703,-1.842 0.549,-0.626 1.097,-1.25 1.642,-1.871 4.419,-4.92 8.397,-9.928 12.077,-14.741 1.774,-2.456 3.567,-4.797 5.132,-7.182 0.799,-1.18 1.585,-2.34 2.356,-3.479 0.731,-1.166 1.447,-2.309 2.15,-3.43 2.803,-4.484 5.129,-8.742 7.09,-12.566 0.515,-0.944 0.949,-1.889 1.372,-2.799 0.426,-0.91 0.836,-1.786 1.23,-2.629 0.822,-1.67 1.427,-3.269 2.025,-4.691 0.294,-0.714 0.573,-1.389 0.835,-2.025 0.131,-0.317 0.258,-0.625 0.38,-0.923 0.109,-0.303 0.213,-0.596 0.314,-0.878 0.402,-1.13 0.744,-2.09 1.021,-2.869 0.555,-1.558 0.851,-2.389 0.851,-2.389 0,0 -0.288,0.833 -0.829,2.396 -0.271,0.782 -0.604,1.746 -0.996,2.88 -0.098,0.283 -0.2,0.577 -0.306,0.881 -0.12,0.299 -0.244,0.608 -0.372,0.927 -0.257,0.638 -0.529,1.316 -0.817,2.032 -0.585,1.429 -1.177,3.036 -1.984,4.714 -0.387,0.847 -0.79,1.728 -1.208,2.642 -0.415,0.915 -0.841,1.866 -1.348,2.815 -1.926,3.847 -4.216,8.135 -7.02,12.629 -0.7,1.125 -1.415,2.272 -2.143,3.442 -0.769,1.143 -1.552,2.308 -2.349,3.492 -1.56,2.394 -3.348,4.744 -5.118,7.209 -3.67,4.832 -7.639,9.861 -12.049,14.801 -0.544,0.624 -1.09,1.25 -1.639,1.878 -0.564,0.615 -1.131,1.232 -1.699,1.851 -1.141,1.234 -2.273,2.494 -3.444,3.732 -2.364,2.452 -4.735,4.957 -7.222,7.386 -2.442,2.473 -5.002,4.865 -7.538,7.302 -2.59,2.379 -5.157,4.804 -7.811,7.133 -0.593,0.529 -1.193,1.05 -1.789,1.576 3.998,-1.446 7.847,-2.91 11.491,-4.415 0.732,-0.732 1.462,-1.47 2.186,-2.22 4.271,-4.309 8.463,-8.827 12.613,-13.381 4.127,-4.573 8.194,-9.203 12.033,-13.896 3.824,-4.702 7.519,-9.391 10.859,-14.098 0.423,-0.584 0.844,-1.166 1.264,-1.745 0.404,-0.59 0.807,-1.177 1.208,-1.761 0.801,-1.168 1.595,-2.326 2.381,-3.47 1.507,-2.331 3.033,-4.581 4.375,-6.859 0.676,-1.136 1.392,-2.229 2.007,-3.356 0.63,-1.119 1.25,-2.221 1.86,-3.305 0.622,-1.078 1.142,-2.185 1.702,-3.246 0.542,-1.07 1.108,-2.105 1.572,-3.161 0.484,-1.047 0.957,-2.072 1.42,-3.074 0.468,-1 0.833,-2.015 1.248,-2.981 0.845,-1.928 1.473,-3.821 2.1,-5.588 0.334,-0.877 0.568,-1.754 0.813,-2.594 0.243,-0.842 0.478,-1.653 0.703,-2.433 0.388,-1.574 0.679,-3.037 0.977,-4.352 0.223,-1.327 0.373,-2.521 0.537,-3.556 0.039,-0.259 0.076,-0.509 0.112,-0.748 0.027,-0.241 0.035,-0.473 0.052,-0.694 0.03,-0.443 0.057,-0.845 0.081,-1.206 0.097,-1.444 0.148,-2.214 0.148,-2.214 0,0 -0.022,0.772 -0.064,2.218 -0.01,0.362 -0.022,0.767 -0.035,1.212 -0.009,0.223 -0.007,0.456 -0.025,0.698 -0.027,0.241 -0.055,0.493 -0.084,0.753 -0.12,1.044 -0.235,2.248 -0.423,3.589 -0.261,1.327 -0.513,2.807 -0.858,4.402 -0.204,0.791 -0.417,1.613 -0.638,2.467 -0.222,0.853 -0.433,1.743 -0.743,2.635 -0.581,1.795 -1.16,3.722 -1.955,5.686 -0.385,0.986 -0.744,2.014 -1.195,3.029 -0.449,1.018 -0.908,2.058 -1.377,3.121 -0.449,1.073 -1,2.123 -1.527,3.211 -0.545,1.077 -1.051,2.203 -1.657,3.298 -0.595,1.102 -1.2,2.222 -1.814,3.36 -0.601,1.146 -1.301,2.257 -1.961,3.412 -1.312,2.317 -2.807,4.606 -4.284,6.979 -0.759,1.171 -1.557,2.336 -2.355,3.518 -0.4,0.59 -0.802,1.183 -1.205,1.778 -0.418,0.585 -0.839,1.172 -1.261,1.763 -3.332,4.752 -7.016,9.485 -10.832,14.231 -0.967,1.177 -1.937,2.358 -2.91,3.542 -0.974,1.184 -1.989,2.339 -2.985,3.514 -1.983,2.359 -4.064,4.647 -6.111,6.966 -4.099,4.447 -8.239,8.855 -12.45,13.068 1.123,-0.492 2.227,-0.988 3.301,-1.491 18.276,-15.759 44.891,-44.741 55.171,-68.998 5.312,-13.739 6.963,-27.332 2.191,-39.035 1.392,0.826 1.755,2.295 2.363,3.666 5.41,12.072 3.115,26.345 -3.359,41.033 -6.008,15.114 -15.333,29.507 -25.442,42.326 -0.306,0.41 -0.607,0.831 -0.914,1.241 0,-0.031 0,-0.062 0.006,-0.093 C 27.503,-23.24 1.329,-2.825 0,0" />
      </g>
      <g
         transform="matrix(0.35277777,0,0,-0.35277777,287.73219,215.0872)"
         id="g154">
        <path
           inkscape:connector-curvature="0"
           id="path156"
           style="fill:#c7c6c5;fill-opacity:1;fill-rule:nonzero;stroke:none"
           d="m 0,0 c -0.275,-0.696 -0.26,-1.475 -0.389,-2.212 65.509,99.497 -65.478,186.786 -156.044,307.29 -23.224,1.786 -43.718,-1.236 -61.319,-6.656 2.966,-5.939 7.497,-25.937 39.647,-65.519 -4.301,7.646 -8.017,15.662 -11.003,24.186 0.758,-1.539 1.588,-3.101 2.407,-4.732 0.303,-0.59 0.61,-1.185 0.919,-1.787 0.329,-0.591 0.662,-1.188 0.997,-1.791 0.671,-1.206 1.355,-2.434 2.051,-3.683 0.693,-1.252 1.473,-2.479 2.224,-3.751 0.772,-1.258 1.507,-2.567 2.342,-3.837 1.653,-2.551 3.308,-5.201 5.147,-7.811 0.913,-1.308 1.791,-2.664 2.77,-3.966 0.963,-1.313 1.936,-2.639 2.917,-3.975 3.997,-5.291 8.246,-10.67 12.765,-15.962 4.511,-5.298 9.198,-10.59 13.981,-15.788 9.607,-10.359 19.465,-20.462 28.497,-30.119 4.496,-4.846 8.862,-9.512 12.874,-14.051 2.032,-2.246 3.938,-4.492 5.806,-6.644 1.854,-2.164 3.598,-4.295 5.292,-6.324 1.646,-2.067 3.24,-4.036 4.726,-5.932 1.464,-1.913 2.874,-3.713 4.162,-5.432 1.266,-1.736 2.451,-3.36 3.546,-4.862 1.077,-1.515 2.028,-2.934 2.907,-4.202 1.775,-2.526 3.045,-4.593 3.961,-5.97 0.902,-1.387 1.383,-2.127 1.383,-2.127 0,0 -0.456,0.756 -1.311,2.172 -0.428,0.708 -0.955,1.581 -1.575,2.608 -0.315,0.511 -0.635,1.072 -1.009,1.649 -0.375,0.576 -0.774,1.188 -1.196,1.835 -0.848,1.291 -1.765,2.736 -2.806,4.28 -1.06,1.532 -2.206,3.188 -3.431,4.958 -1.248,1.754 -2.615,3.592 -4.035,5.546 -1.443,1.937 -3.023,3.925 -4.638,6.026 -1.667,2.06 -3.384,4.222 -5.209,6.42 -1.84,2.185 -3.717,4.466 -5.719,6.748 -3.952,4.61 -8.241,9.365 -12.739,14.223 -8.997,9.715 -18.801,19.871 -28.342,30.253 -4.8,5.164 -9.499,10.416 -14.021,15.674 -4.53,5.251 -8.786,10.585 -12.791,15.831 -0.983,1.326 -1.957,2.64 -2.923,3.942 -0.49,0.646 -0.954,1.305 -1.414,1.962 -0.464,0.655 -0.925,1.306 -1.384,1.954 -1.869,2.569 -3.555,5.18 -5.238,7.694 -0.85,1.251 -1.6,2.542 -2.388,3.782 -0.766,1.254 -1.562,2.465 -2.27,3.699 -0.711,1.233 -1.41,2.445 -2.096,3.635 -0.343,0.595 -0.683,1.184 -1.019,1.768 -0.317,0.594 -0.631,1.183 -0.942,1.765 -0.452,0.862 -0.902,1.703 -1.346,2.535 5.131,-8.013 20.205,-27.873 25.872,-34.456 1.394,-1.631 2.923,-3.418 4.573,-5.324 10.646,-12.855 19.736,-23.203 20.294,-23.476 0.761,-0.92 1.665,-1.784 2.682,-2.623 4.418,-4.979 8.982,-10.122 13.549,-15.268 3.166,-3.559 6.335,-7.116 9.418,-10.648 3.093,-3.525 6.137,-6.993 9.082,-10.349 1.461,-1.688 2.881,-3.362 4.303,-4.974 1.421,-1.613 2.793,-3.205 4.122,-4.762 2.662,-3.111 5.179,-6.052 7.502,-8.767 2.321,-2.718 4.434,-5.222 6.302,-7.447 1.87,-2.223 3.515,-4.151 4.838,-5.765 1.328,-1.61 2.399,-2.854 3.118,-3.712 0.722,-0.855 1.107,-1.311 1.107,-1.311 0,0 -0.338,0.492 -0.973,1.413 -0.637,0.919 -1.556,2.281 -2.76,3.987 -0.601,0.855 -1.266,1.801 -1.99,2.831 -0.743,1.018 -1.545,2.117 -2.402,3.293 -0.86,1.174 -1.775,2.423 -2.74,3.74 -0.969,1.313 -2.025,2.666 -3.107,4.093 -1.088,1.423 -2.221,2.905 -3.393,4.439 -1.199,1.514 -2.437,3.079 -3.71,4.688 -2.535,3.229 -5.281,6.573 -8.126,10.03 -1.437,1.716 -2.897,3.461 -4.375,5.228 -0.74,0.882 -1.485,1.77 -2.233,2.663 -0.761,0.881 -1.527,1.766 -2.295,2.655 -3.064,3.564 -6.208,7.156 -9.359,10.741 -1.857,2.072 -3.714,4.142 -5.566,6.198 1.473,-0.978 2.982,-2.025 4.499,-3.173 2.745,-2.923 5.562,-5.922 8.424,-8.969 3.234,-3.421 6.442,-6.964 9.678,-10.481 3.185,-3.563 6.427,-7.076 9.483,-10.651 0.771,-0.887 1.539,-1.771 2.303,-2.651 0.768,-0.876 1.535,-1.746 2.268,-2.635 1.481,-1.765 2.944,-3.509 4.383,-5.224 1.461,-1.699 2.778,-3.463 4.148,-5.126 0.677,-0.839 1.346,-1.669 2.006,-2.489 0.33,-0.411 0.658,-0.819 0.983,-1.224 0.314,-0.415 0.626,-0.826 0.936,-1.235 2.47,-3.276 4.87,-6.331 6.888,-9.291 1.034,-1.463 2.026,-2.864 2.969,-4.198 0.932,-1.34 1.758,-2.65 2.566,-3.862 0.8,-1.217 1.549,-2.355 2.242,-3.408 0.716,-1.04 1.262,-2.062 1.809,-2.953 2.156,-3.589 3.387,-5.64 3.387,-5.64 0,0 -1.136,2.106 -3.125,5.793 -0.515,0.911 -1.026,1.957 -1.703,3.023 -0.655,1.08 -1.364,2.248 -2.121,3.496 -0.765,1.243 -1.545,2.589 -2.43,3.967 -0.913,1.36 -1.873,2.79 -2.874,4.282 -1.96,3.017 -4.296,6.132 -6.702,9.477 -0.302,0.417 -0.606,0.837 -0.912,1.26 -0.317,0.414 -0.636,0.831 -0.958,1.25 -0.644,0.837 -1.297,1.685 -1.956,2.541 -0.662,0.856 -1.331,1.72 -2.007,2.593 -0.339,0.435 -0.679,0.873 -1.021,1.312 -0.353,0.431 -0.707,0.864 -1.062,1.299 -1.424,1.737 -2.871,3.504 -4.337,5.292 -1.457,1.796 -3.012,3.544 -4.544,5.337 -3.052,3.597 -6.285,7.131 -9.467,10.712 -3.256,3.512 -6.484,7.051 -9.735,10.462 -0.738,0.789 -1.477,1.569 -2.215,2.345 0.009,0.866 0.224,1.763 0.6,2.622 0.462,-0.489 0.924,-0.978 1.402,-1.482 2.58,-2.741 5.376,-5.71 8.333,-8.85 2.935,-3.16 6.041,-6.482 9.181,-9.985 0.79,-0.872 1.586,-1.751 2.387,-2.636 0.802,-0.886 1.582,-1.801 2.382,-2.71 1.587,-1.827 3.218,-3.655 4.816,-5.537 1.583,-1.896 3.178,-3.806 4.78,-5.723 0.811,-0.95 1.582,-1.936 2.358,-2.92 l 2.332,-2.95 2.344,-2.94 c 0.751,-1.003 1.502,-2.004 2.251,-3.004 0.748,-0.999 1.495,-1.997 2.239,-2.993 0.736,-1.001 1.51,-1.971 2.198,-2.996 1.409,-2.027 2.808,-4.037 4.189,-6.024 0.346,-0.496 0.69,-0.991 1.033,-1.485 0.326,-0.505 0.65,-1.009 0.974,-1.51 0.644,-1.006 1.283,-2.004 1.917,-2.994 0.635,-0.989 1.264,-1.971 1.887,-2.943 0.311,-0.486 0.621,-0.97 0.93,-1.452 0.29,-0.492 0.578,-0.982 0.865,-1.47 1.143,-1.953 2.261,-3.864 3.349,-5.725 0.535,-0.935 1.103,-1.835 1.588,-2.763 0.49,-0.926 0.972,-1.837 1.446,-2.734 0.949,-1.792 1.865,-3.525 2.745,-5.187 0.916,-1.645 1.621,-3.308 2.379,-4.846 0.74,-1.547 1.443,-3.014 2.103,-4.393 1.372,-2.735 2.338,-5.222 3.212,-7.236 1.716,-4.043 2.696,-6.353 2.696,-6.353 0,0 -0.951,2.322 -2.615,6.387 -0.849,2.025 -1.785,4.527 -3.122,7.28 -0.644,1.389 -1.328,2.866 -2.05,4.423 -0.363,0.778 -0.735,1.575 -1.116,2.392 -0.195,0.406 -0.376,0.825 -0.589,1.234 -0.214,0.408 -0.43,0.821 -0.648,1.238 -0.874,1.669 -1.784,3.407 -2.726,5.205 -0.471,0.9 -0.949,1.815 -1.436,2.743 -0.481,0.932 -1.046,1.835 -1.577,2.775 -1.082,1.867 -2.193,3.786 -3.329,5.746 -0.285,0.49 -0.572,0.982 -0.86,1.477 -0.307,0.483 -0.615,0.969 -0.925,1.457 -0.62,0.977 -1.245,1.962 -1.876,2.956 -0.631,0.994 -1.267,1.997 -1.908,3.006 -0.322,0.504 -0.644,1.01 -0.968,1.517 -0.342,0.496 -0.685,0.993 -1.028,1.492 -1.375,1.995 -2.767,4.015 -4.17,6.051 -0.685,1.03 -1.455,2.004 -2.188,3.011 -0.741,1 -1.485,2.003 -2.23,3.007 -0.745,1.005 -1.493,2.011 -2.241,3.018 l -2.336,2.954 -2.348,2.944 c -0.781,0.982 -1.558,1.966 -2.375,2.914 -1.611,1.912 -3.217,3.818 -4.81,5.708 -1.607,1.878 -3.248,3.7 -4.844,5.522 -0.805,0.906 -1.59,1.819 -2.396,2.702 -0.806,0.882 -1.606,1.758 -2.4,2.627 -3.157,3.492 -6.279,6.802 -9.229,9.95 -2.97,3.128 -5.779,6.085 -8.372,8.815 -0.506,0.529 -0.996,1.042 -1.485,1.553 0.341,0.708 0.79,1.384 1.324,1.986 2.888,-2.952 5.84,-5.988 8.866,-9.097 4.809,-4.983 9.709,-10.197 14.594,-15.578 4.853,-5.408 9.688,-10.986 14.348,-16.705 4.646,-5.729 9.183,-11.549 13.375,-17.476 0.54,-0.73 1.054,-1.475 1.559,-2.224 0.51,-0.746 1.018,-1.49 1.525,-2.233 1.013,-1.486 2.038,-2.953 2.978,-4.463 0.96,-1.497 1.913,-2.985 2.86,-4.463 0.921,-1.494 1.798,-2.999 2.689,-4.479 0.443,-0.742 0.884,-1.481 1.323,-2.216 0.43,-0.741 0.831,-1.493 1.244,-2.234 0.825,-1.484 1.641,-2.953 2.449,-4.407 0.783,-1.467 1.516,-2.939 2.264,-4.382 0.736,-1.449 1.498,-2.864 2.143,-4.311 1.329,-2.875 2.69,-5.643 3.795,-8.413 0.577,-1.375 1.144,-2.726 1.701,-4.053 0.535,-1.335 1.004,-2.667 1.494,-3.961 0.483,-1.296 0.955,-2.565 1.417,-3.805 0.412,-1.258 0.815,-2.487 1.207,-3.686 0.395,-1.197 0.78,-2.364 1.155,-3.499 0.368,-1.136 0.651,-2.262 0.967,-3.341 0.305,-1.083 0.601,-2.13 0.887,-3.142 0.286,-1.011 0.572,-1.984 0.776,-2.936 0.445,-1.896 0.853,-3.638 1.222,-5.21 0.395,-1.569 0.642,-2.991 0.879,-4.224 0.236,-1.233 0.437,-2.282 0.599,-3.133 0.326,-1.702 0.499,-2.61 0.499,-2.61 0,0 -0.144,0.912 -0.415,2.624 -0.136,0.856 -0.303,1.912 -0.5,3.153 -0.098,0.621 -0.204,1.288 -0.317,2 -0.102,0.715 -0.292,1.457 -0.448,2.251 -0.332,1.585 -0.7,3.339 -1.1,5.249 -0.183,0.96 -0.446,1.941 -0.709,2.961 -0.262,1.021 -0.534,2.078 -0.814,3.171 -0.291,1.09 -0.548,2.227 -0.891,3.376 -0.349,1.147 -0.707,2.327 -1.075,3.538 -0.373,1.21 -0.756,2.451 -1.148,3.722 -0.446,1.252 -0.902,2.533 -1.368,3.842 -0.473,1.306 -0.925,2.652 -1.443,4.001 -0.54,1.341 -1.09,2.707 -1.65,4.097 -1.071,2.801 -2.397,5.602 -3.692,8.513 -0.629,1.464 -1.373,2.898 -2.092,4.365 -0.731,1.462 -1.448,2.954 -2.214,4.441 -0.798,1.47 -1.605,2.955 -2.419,4.456 -0.413,0.746 -0.813,1.506 -1.241,2.253 -0.438,0.741 -0.878,1.486 -1.32,2.234 -0.889,1.494 -1.764,3.012 -2.683,4.518 -0.945,1.491 -1.897,2.992 -2.854,4.502 -0.939,1.523 -1.962,3.003 -2.973,4.502 -0.506,0.749 -1.013,1.499 -1.522,2.252 -0.505,0.755 -1.018,1.507 -1.557,2.243 -1.062,1.482 -2.128,2.971 -3.198,4.464 -1.07,1.493 -2.207,2.943 -3.311,4.421 l -1.67,2.211 -1.718,2.178 c -1.154,1.447 -2.289,2.911 -3.46,4.347 -4.707,5.721 -9.586,11.295 -14.479,16.696 -4.924,5.373 -9.859,10.574 -14.7,15.543 -3.03,3.108 -6.02,6.109 -8.95,9.02 0.995,0.839 2.174,1.427 3.431,1.591 3.043,-3.312 6.271,-6.825 9.651,-10.505 4.183,-4.551 8.568,-9.372 13.071,-14.387 4.481,-5.034 9.047,-10.292 13.545,-15.751 4.475,-5.476 8.877,-11.155 13.079,-16.978 4.187,-5.834 8.136,-11.833 11.789,-17.883 1.763,-3.061 3.556,-6.074 5.142,-9.154 1.678,-3.03 3.121,-6.133 4.609,-9.15 0.72,-1.521 1.369,-3.058 2.047,-4.565 0.671,-1.51 1.346,-3.001 1.928,-4.513 0.603,-1.502 1.201,-2.989 1.79,-4.457 0.59,-1.469 1.072,-2.958 1.603,-4.406 0.258,-0.726 0.516,-1.448 0.771,-2.164 0.254,-0.717 0.518,-1.425 0.728,-2.145 0.445,-1.431 0.883,-2.841 1.314,-4.227 0.216,-0.693 0.429,-1.38 0.641,-2.062 0.214,-0.68 0.374,-1.37 0.561,-2.045 0.36,-1.353 0.713,-2.682 1.06,-3.984 0.173,-0.65 0.344,-1.294 0.514,-1.931 0.143,-0.644 0.286,-1.28 0.427,-1.909 0.28,-1.258 0.554,-2.487 0.821,-3.686 0.582,-2.387 0.948,-4.689 1.348,-6.842 0.195,-1.078 0.384,-2.121 0.567,-3.127 0.196,-1.005 0.291,-1.988 0.434,-2.925 0.26,-1.877 0.5,-3.602 0.716,-5.16 0.053,-0.39 0.104,-0.769 0.154,-1.138 0.036,-0.37 0.071,-0.729 0.105,-1.078 0.069,-0.697 0.134,-1.35 0.194,-1.958 0.121,-1.216 0.224,-2.251 0.308,-3.09 0.167,-1.677 0.256,-2.572 0.256,-2.572 0,0 -0.07,0.896 -0.2,2.577 -0.065,0.841 -0.146,1.877 -0.24,3.096 -0.048,0.61 -0.099,1.265 -0.153,1.964 -0.029,0.35 -0.058,0.71 -0.087,1.081 -0.045,0.37 -0.09,0.75 -0.137,1.141 -0.19,1.563 -0.402,3.293 -0.632,5.177 -0.128,0.94 -0.207,1.927 -0.387,2.936 -0.167,1.012 -0.339,2.059 -0.517,3.141 -0.366,2.163 -0.696,4.477 -1.24,6.879 -0.253,1.205 -0.513,2.441 -0.779,3.706 -0.135,0.632 -0.271,1.271 -0.409,1.918 -0.164,0.64 -0.329,1.288 -0.496,1.942 -0.335,1.309 -0.676,2.645 -1.024,4.007 -0.181,0.679 -0.334,1.373 -0.542,2.058 -0.206,0.685 -0.413,1.377 -0.623,2.075 -0.418,1.395 -0.844,2.814 -1.276,4.255 -0.204,0.725 -0.462,1.438 -0.71,2.16 -0.249,0.722 -0.5,1.448 -0.752,2.18 -1.953,5.881 -4.472,11.92 -7.267,18.072 -1.485,3.036 -2.924,6.158 -4.6,9.208 -1.583,3.098 -3.373,6.13 -5.134,9.21 -3.649,6.087 -7.593,12.126 -11.78,17.993 -4.237,5.831 -8.67,11.513 -13.175,16.988 -4.527,5.457 -9.118,10.71 -13.621,15.736 -4.512,5.019 -8.962,9.788 -13.188,14.3 -3.287,3.508 -6.432,6.864 -9.403,10.035 0.873,-0.015 1.771,-0.239 2.66,-0.738 2.33,-1.306 4.617,-2.684 6.87,-4.117 1.578,-1.689 3.164,-3.4 4.756,-5.133 3.115,-3.376 6.221,-6.862 9.344,-10.407 3.104,-3.562 6.216,-7.192 9.297,-10.895 3.068,-3.713 6.131,-7.482 9.097,-11.346 1.506,-1.916 2.949,-3.884 4.425,-5.83 1.431,-1.979 2.9,-3.934 4.293,-5.942 5.684,-7.954 10.967,-16.188 15.714,-24.547 4.681,-8.39 8.928,-16.86 12.308,-25.361 1.751,-4.227 3.195,-8.487 4.592,-12.66 1.297,-4.203 2.513,-8.338 3.43,-12.428 1.903,-8.162 3.095,-16.026 3.597,-23.332 0.093,-1.827 0.224,-3.617 0.279,-5.368 0.025,-1.752 0.074,-3.465 0.082,-5.135 -0.027,-1.67 -0.054,-3.297 -0.08,-4.879 -0.087,-1.581 -0.172,-3.116 -0.254,-4.604 -0.029,-0.745 -0.108,-1.474 -0.176,-2.192 -0.068,-0.717 -0.135,-1.423 -0.201,-2.117 -0.067,-0.693 -0.133,-1.374 -0.198,-2.042 -0.089,-0.665 -0.177,-1.318 -0.264,-1.957 -0.177,-1.279 -0.328,-2.509 -0.506,-3.679 -0.205,-1.166 -0.4,-2.278 -0.585,-3.333 -0.337,-2.119 -0.794,-3.979 -1.121,-5.613 -0.178,-0.814 -0.318,-1.573 -0.491,-2.258 -0.172,-0.685 -0.329,-1.308 -0.47,-1.865 -0.562,-2.231 -0.862,-3.421 -0.862,-3.421 0,0 0.347,1.178 0.998,3.384 0.163,0.553 0.345,1.169 0.545,1.848 0.201,0.679 0.371,1.432 0.581,2.24 0.401,1.621 0.918,3.473 1.316,5.587 0.217,1.054 0.446,2.164 0.686,3.328 0.214,1.17 0.403,2.399 0.619,3.679 0.106,0.64 0.214,1.293 0.324,1.959 0.085,0.67 0.172,1.352 0.26,2.047 0.087,0.696 0.175,1.403 0.266,2.124 0.09,0.72 0.19,1.452 0.242,2.2 0.627,5.97 0.865,12.765 0.498,20.158 -0.342,7.393 -1.378,15.378 -3.194,23.669 -0.866,4.156 -2.031,8.36 -3.279,12.638 -1.336,4.25 -2.787,8.57 -4.51,12.867 -0.813,2.168 -1.761,4.3 -2.663,6.471 -0.468,1.078 -0.965,2.147 -1.449,3.227 -0.483,1.08 -0.973,2.161 -1.501,3.229 -2.016,4.315 -4.289,8.567 -6.635,12.819 -4.77,8.459 -10.073,16.787 -15.782,24.819 -1.412,2.02 -2.897,3.985 -4.345,5.974 -1.492,1.956 -2.953,3.934 -4.474,5.858 -2.999,3.881 -6.091,7.663 -9.189,11.387 -5.548,6.645 -11.237,12.999 -16.874,19.08 2.442,-1.777 4.841,-3.619 7.198,-5.515 3.418,-3.845 6.915,-7.843 10.46,-11.972 5.035,-5.905 10.134,-12.097 15.087,-18.564 2.477,-3.232 4.929,-6.524 7.309,-9.887 1.205,-1.67 2.362,-3.38 3.54,-5.077 1.144,-1.719 2.312,-3.425 3.422,-5.17 2.264,-3.459 4.431,-6.981 6.499,-10.541 2.084,-3.551 4.026,-7.165 5.869,-10.791 1.858,-3.619 3.524,-7.296 5.108,-10.954 1.567,-3.665 2.959,-7.35 4.24,-11.004 1.225,-3.673 2.369,-7.307 3.292,-10.919 0.12,-0.45 0.24,-0.899 0.359,-1.347 0.107,-0.45 0.214,-0.9 0.32,-1.348 0.213,-0.897 0.424,-1.788 0.634,-2.674 0.183,-0.892 0.365,-1.779 0.546,-2.66 0.186,-0.88 0.361,-1.756 0.502,-2.632 1.25,-6.99 1.888,-13.692 2.038,-19.89 0.143,-6.198 -0.164,-11.888 -0.711,-16.899 -0.053,-0.628 -0.124,-1.244 -0.211,-1.848 -0.08,-0.604 -0.158,-1.199 -0.235,-1.782 -0.077,-0.584 -0.152,-1.158 -0.227,-1.721 -0.092,-0.559 -0.183,-1.108 -0.272,-1.647 -0.182,-1.076 -0.356,-2.108 -0.522,-3.095 -0.2,-0.98 -0.39,-1.915 -0.571,-2.802 -0.336,-1.781 -0.748,-3.346 -1.069,-4.716 -0.168,-0.683 -0.307,-1.32 -0.464,-1.895 -0.159,-0.575 -0.303,-1.097 -0.432,-1.565 -0.518,-1.872 -0.794,-2.87 -0.794,-2.87 0,0 0.291,0.994 0.838,2.857 0.136,0.466 0.289,0.987 0.456,1.56 0.166,0.573 0.315,1.207 0.494,1.889 0.342,1.366 0.778,2.926 1.142,4.703 0.195,0.886 0.4,1.819 0.614,2.798 0.182,0.985 0.372,2.016 0.571,3.092 0.097,0.538 0.197,1.087 0.298,1.646 0.083,0.563 0.168,1.136 0.254,1.72 0.086,0.585 0.174,1.179 0.263,1.784 0.096,0.604 0.177,1.22 0.239,1.849 0.63,5.016 1.028,10.725 0.923,16.953 -0.097,6.227 -0.679,12.97 -1.876,20.01 -1.167,7.045 -3.065,14.358 -5.546,21.74 -1.278,3.679 -2.668,7.388 -4.233,11.078 -1.581,3.682 -3.246,7.383 -5.103,11.025 -1.842,3.649 -3.782,7.286 -5.865,10.859 -2.068,3.581 -4.231,7.125 -6.498,10.603 -1.119,1.747 -2.296,3.457 -3.45,5.179 -1.186,1.7 -2.352,3.411 -3.566,5.084 -2.397,3.367 -4.866,6.661 -7.359,9.895 -4.984,6.469 -10.11,12.659 -15.171,18.559 -2.319,2.699 -4.63,5.33 -6.917,7.896 3.938,-3.339 7.764,-6.814 11.49,-10.377 0.359,0.225 0.767,0.382 1.215,0.479 4.739,-5.799 9.384,-11.758 13.871,-17.833 5.83,-7.924 11.412,-16.034 16.415,-24.315 2.526,-4.126 4.882,-8.306 7.136,-12.473 1.102,-2.096 2.207,-4.175 3.221,-6.281 1.059,-2.084 2.009,-4.2 2.978,-6.286 1.867,-4.204 3.606,-8.382 5.094,-12.549 0.787,-2.069 1.441,-4.158 2.121,-6.21 0.352,-1.023 0.617,-2.064 0.927,-3.086 0.289,-1.027 0.621,-2.036 0.868,-3.06 2.146,-8.146 3.486,-16.029 3.999,-23.368 0.48,-7.34 0.21,-14.109 -0.518,-20.05 -0.216,-1.481 -0.38,-2.923 -0.619,-4.302 C -7.244,10.319 -7.495,8.993 -7.736,7.719 -8.004,6.451 -8.323,5.247 -8.595,4.089 -8.738,3.512 -8.865,2.944 -9.011,2.396 -9.172,1.853 -9.329,1.323 -9.482,0.806 c -0.306,-1.033 -0.596,-2.011 -0.869,-2.931 -0.299,-0.911 -0.604,-1.758 -0.875,-2.551 -0.274,-0.792 -0.528,-1.524 -0.761,-2.196 -0.24,-0.668 -0.5,-1.259 -0.711,-1.798 -0.866,-2.146 -1.328,-3.29 -1.328,-3.29 0,0 0.507,1.126 1.458,3.236 0.232,0.53 0.517,1.113 0.784,1.772 0.259,0.663 0.543,1.387 0.849,2.169 0.302,0.784 0.646,1.62 0.977,2.525 0.301,0.916 0.621,1.889 0.959,2.917 0.169,0.515 0.343,1.043 0.521,1.585 0.163,0.546 0.308,1.112 0.469,1.689 0.307,1.156 0.665,2.358 0.972,3.627 0.281,1.277 0.574,2.605 0.877,3.983 0.282,1.383 0.491,2.831 0.752,4.32 0.919,5.973 1.4,12.819 1.049,20.27 -0.354,7.447 -1.543,15.477 -3.611,23.767 -2.08,8.287 -5.052,16.824 -8.797,25.348 -3.773,8.511 -8.205,17.067 -13.28,25.409 -5.025,8.372 -10.621,16.565 -16.472,24.557 -4.06,5.463 -8.245,10.828 -12.508,16.064 1.428,-0.382 3.048,-1.08 4.821,-2.069 0.526,-0.68 1.052,-1.36 1.58,-2.042 6.123,-7.915 12.041,-16.174 17.623,-24.638 5.575,-8.464 10.832,-17.137 15.352,-25.999 2.285,-4.418 4.376,-8.883 6.324,-13.341 0.475,-1.12 0.948,-2.237 1.42,-3.349 0.453,-1.12 0.877,-2.246 1.316,-3.363 0.217,-0.559 0.434,-1.117 0.651,-1.674 0.199,-0.562 0.398,-1.124 0.597,-1.685 0.394,-1.122 0.787,-2.24 1.179,-3.353 2.913,-8.969 5.086,-17.861 6.023,-26.444 0.555,-4.284 0.666,-8.483 0.731,-12.542 -0.068,-4.056 -0.24,-7.987 -0.756,-11.724 -0.95,-7.484 -2.694,-14.234 -4.768,-20.034 -0.257,-0.727 -0.51,-1.442 -0.759,-2.145 -0.286,-0.69 -0.567,-1.367 -0.843,-2.032 -0.278,-0.666 -0.55,-1.32 -0.817,-1.961 -0.133,-0.322 -0.264,-0.64 -0.394,-0.956 -0.146,-0.308 -0.291,-0.613 -0.435,-0.914 -0.574,-1.209 -1.125,-2.369 -1.652,-3.478 -0.539,-1.103 -1.13,-2.115 -1.65,-3.098 -0.266,-0.49 -0.524,-0.966 -0.775,-1.429 -0.247,-0.465 -0.494,-0.913 -0.761,-1.331 -0.514,-0.849 -0.996,-1.645 -1.444,-2.386 -0.451,-0.739 -0.856,-1.433 -1.251,-2.052 -0.411,-0.609 -0.785,-1.162 -1.12,-1.657 -1.335,-1.99 -2.047,-3.052 -2.047,-3.052 0,0 0.796,1.001 2.289,2.877 0.372,0.471 0.788,0.997 1.245,1.576 0.442,0.59 0.898,1.254 1.406,1.962 0.505,0.711 1.047,1.475 1.626,2.29 0.295,0.404 0.573,0.838 0.851,1.29 0.282,0.45 0.573,0.913 0.871,1.389 2.448,3.768 5.079,8.587 7.513,14.39 0.301,0.727 0.607,1.466 0.918,2.216 0.318,0.749 0.556,1.539 0.844,2.325 0.278,0.79 0.559,1.592 0.845,2.404 l 0.215,0.612 0.182,0.627 c 0.122,0.419 0.245,0.841 0.369,1.266 0.245,0.851 0.493,1.712 0.745,2.585 0.251,0.873 0.419,1.778 0.635,2.683 0.206,0.908 0.414,1.826 0.624,2.755 0.161,0.939 0.324,1.888 0.488,2.846 0.69,3.835 1.038,7.884 1.28,12.081 0.103,4.198 0.082,8.556 -0.348,13.002 -0.708,8.912 -2.647,18.182 -5.53,27.465 -0.382,1.153 -0.766,2.311 -1.151,3.473 -0.194,0.581 -0.388,1.163 -0.583,1.746 -0.212,0.576 -0.425,1.153 -0.638,1.732 -0.429,1.155 -0.846,2.321 -1.291,3.48 -0.463,1.151 -0.928,2.305 -1.395,3.463 -0.453,1.165 -0.963,2.307 -1.464,3.457 -0.509,1.147 -0.988,2.313 -1.526,3.453 -1.081,2.278 -2.152,4.576 -3.322,6.832 -4.571,9.088 -9.865,17.954 -15.487,26.58 -2.403,3.597 -4.866,7.149 -7.374,10.653 C -11.904,109.307 20.546,52.501 0,0" />
      </g>
      <g
         transform="matrix(0.35277777,0,0,-0.35277777,230.22111,104.23297)"
         id="g158">
        <path
           inkscape:connector-curvature="0"
           id="path160"
           style="fill:#c7c6c5;fill-opacity:1;fill-rule:nonzero;stroke:none"
           d="m 0,0 c -17.833,25.653 -38.717,59.345 -21.561,85.391 8.86,13.441 10.704,14.492 8.113,17.359 -2.059,2.283 -13.62,-2.616 -20.53,-22.593 C -61.021,2.386 -61.914,23.516 -57.595,-10.6 -54.189,-7.988 -33.225,0.35 0,0" />
      </g>
      <g
         transform="matrix(0.35277777,0,0,-0.35277777,191.29169,218.01974)"
         id="g162">
        <path
           inkscape:connector-curvature="0"
           id="path164"
           style="fill:#c7c6c5;fill-opacity:1;fill-rule:nonzero;stroke:none"
           d="m 0,0 c -0.606,0.239 -1.352,0.534 -2.23,0.88 -0.439,0.173 -0.91,0.358 -1.413,0.556 -0.502,0.198 -1.015,0.463 -1.568,0.712 -1.098,0.511 -2.315,1.077 -3.639,1.694 -1.307,0.649 -2.678,1.437 -4.163,2.229 -1.507,0.755 -2.98,1.786 -4.583,2.777 -1.626,0.959 -3.196,2.177 -4.876,3.378 -0.418,0.303 -0.841,0.609 -1.267,0.918 -0.405,0.337 -0.815,0.677 -1.228,1.021 -0.825,0.686 -1.666,1.385 -2.522,2.096 -0.438,0.343 -0.836,0.74 -1.249,1.125 -0.412,0.387 -0.827,0.778 -1.245,1.17 -0.418,0.393 -0.84,0.789 -1.264,1.187 l -0.639,0.6 -0.605,0.643 c -0.806,0.862 -1.624,1.736 -2.451,2.621 l -0.622,0.664 -0.585,0.706 c -0.39,0.473 -0.782,0.949 -1.176,1.427 -0.393,0.478 -0.789,0.958 -1.187,1.441 -0.412,0.471 -0.783,0.979 -1.154,1.491 -0.749,1.019 -1.504,2.047 -2.266,3.084 -2.898,4.253 -5.599,8.844 -7.948,13.715 -2.307,4.889 -4.342,10.004 -5.976,15.256 -0.311,1.012 -0.608,2.029 -0.898,3.047 0.945,-0.614 1.9,-1.138 2.857,-1.566 0.296,-1.055 0.646,-2.092 0.988,-3.125 0.425,-1.243 0.785,-2.501 1.288,-3.701 0.473,-1.211 0.942,-2.414 1.409,-3.608 0.53,-1.167 1.057,-2.327 1.58,-3.476 2.177,-4.553 4.609,-8.814 7.36,-12.539 1.285,-1.928 2.782,-3.617 4.138,-5.319 0.332,-0.432 0.708,-0.819 1.072,-1.211 0.365,-0.391 0.726,-0.779 1.084,-1.163 0.358,-0.384 0.712,-0.764 1.064,-1.141 0.354,-0.373 0.687,-0.76 1.066,-1.094 0.737,-0.69 1.458,-1.364 2.163,-2.024 0.706,-0.659 1.38,-1.319 2.114,-1.875 0.715,-0.577 1.412,-1.139 2.089,-1.686 0.678,-0.545 1.324,-1.091 2.01,-1.54 1.343,-0.937 2.599,-1.813 3.761,-2.623 1.213,-0.73 2.327,-1.4 3.334,-2.006 0.503,-0.302 0.979,-0.587 1.427,-0.856 0.466,-0.237 0.903,-0.46 1.309,-0.667 0.812,-0.413 1.503,-0.765 2.064,-1.05 1.119,-0.569 1.716,-0.873 1.716,-0.873 0,0 -0.588,0.321 -1.691,0.923 -0.551,0.301 -1.23,0.673 -2.029,1.109 -0.4,0.218 -0.829,0.452 -1.287,0.702 -0.441,0.278 -0.91,0.574 -1.406,0.886 -0.99,0.625 -2.085,1.317 -3.279,2.071 -1.139,0.832 -2.37,1.731 -3.687,2.693 -0.672,0.461 -1.303,1.018 -1.965,1.576 -0.661,0.557 -1.341,1.131 -2.04,1.72 -0.714,0.569 -1.378,1.231 -2.069,1.895 -0.691,0.664 -1.398,1.344 -2.12,2.037 -0.372,0.336 -0.698,0.725 -1.044,1.1 -0.343,0.379 -0.69,0.761 -1.04,1.147 -0.349,0.385 -0.703,0.774 -1.059,1.167 -0.356,0.393 -0.724,0.782 -1.047,1.215 -1.321,1.705 -2.782,3.396 -4.029,5.324 -2.676,3.725 -5.013,7.979 -7.164,12.485 -0.512,1.14 -1.029,2.289 -1.549,3.447 -0.457,1.185 -0.916,2.378 -1.379,3.579 -0.493,1.189 -0.843,2.439 -1.259,3.671 -0.256,0.785 -0.516,1.572 -0.755,2.368 0.453,-0.165 0.905,-0.316 1.356,-0.435 0.701,-1.439 1.502,-2.858 2.38,-4.26 0.245,-0.629 0.491,-1.254 0.764,-1.862 0.48,-1.047 0.955,-2.081 1.424,-3.102 0.44,-1.031 1.009,-1.988 1.507,-2.957 0.255,-0.481 0.509,-0.959 0.761,-1.433 0.126,-0.236 0.252,-0.472 0.377,-0.707 0.141,-0.226 0.281,-0.452 0.42,-0.676 1.124,-1.791 2.16,-3.545 3.348,-5.106 0.576,-0.79 1.113,-1.582 1.687,-2.32 0.597,-0.72 1.18,-1.424 1.749,-2.11 1.103,-1.396 2.338,-2.56 3.423,-3.709 0.275,-0.284 0.545,-0.563 0.811,-0.838 0.274,-0.267 0.563,-0.51 0.836,-0.759 0.552,-0.49 1.085,-0.962 1.597,-1.416 0.256,-0.225 0.508,-0.445 0.753,-0.661 0.123,-0.108 0.245,-0.215 0.365,-0.32 0.127,-0.097 0.254,-0.193 0.378,-0.287 0.5,-0.377 0.976,-0.736 1.428,-1.077 0.451,-0.34 0.878,-0.662 1.279,-0.965 0.202,-0.15 0.397,-0.295 0.585,-0.435 0.193,-0.134 0.391,-0.249 0.575,-0.368 0.742,-0.467 1.372,-0.863 1.884,-1.185 1.022,-0.635 1.568,-0.974 1.568,-0.974 0,0 -0.498,0.407 -1.431,1.169 -0.466,0.377 -1.042,0.842 -1.718,1.389 -0.167,0.139 -0.347,0.274 -0.521,0.429 -0.17,0.16 -0.346,0.325 -0.528,0.496 -0.365,0.338 -0.752,0.697 -1.162,1.077 -0.409,0.378 -0.839,0.777 -1.29,1.196 -0.113,0.104 -0.226,0.21 -0.341,0.317 -0.108,0.116 -0.216,0.232 -0.326,0.351 -0.219,0.235 -0.442,0.476 -0.671,0.722 -0.458,0.489 -0.934,0.997 -1.428,1.525 -0.246,0.265 -0.506,0.523 -0.751,0.806 -0.237,0.289 -0.477,0.584 -0.722,0.884 -0.963,1.209 -2.061,2.428 -3.017,3.875 -0.502,0.701 -1.017,1.421 -1.544,2.158 -0.507,0.75 -0.976,1.553 -1.482,2.351 -0.765,1.205 -1.5,2.479 -2.211,3.811 6.573,-7.101 14.367,-13.556 20.875,-19.185 0,0 0,-0.007 0.007,-0.007 C -5.841,17.285 1.381,14.764 1.381,14.764 19.391,5.775 47.788,-3.312 67.32,6.096 c 15.18,7.318 31.746,29.607 40.76,42.769 0,0.008 0.008,0.008 0.008,0.008 2.75,3.705 3.383,3.944 4.317,5.018 0.452,0.519 2.674,5.838 1.087,4.546 C 107.253,53.357 100.563,45.291 91.126,39.608 52.772,19.499 4.957,53.232 -12.954,95.196 c -17.629,45.689 -5.896,102.67 19.123,125.969 8.438,7.884 13.928,8.708 12.347,12.463 -1.203,3.013 -88.979,-42.405 -95.105,-127.719 2.752,-1.059 2.324,-2.952 2.832,-5.992 -0.24,-3.432 -0.395,-6.98 -0.322,-10.62 0.007,-0.671 -0.012,-1.346 0.016,-2.023 0.027,-0.677 0.054,-1.357 0.081,-2.039 0.027,-0.682 0.055,-1.367 0.082,-2.054 l 0.043,-1.032 0.083,-1.034 c 0.111,-1.381 0.223,-2.77 0.336,-4.166 0.159,-1.392 0.356,-2.787 0.534,-4.19 0.819,-5.597 1.974,-11.25 3.64,-16.769 1.718,-5.501 3.879,-10.862 6.41,-15.944 0.674,-1.249 1.347,-2.493 2.015,-3.73 l 0.507,-0.923 0.558,-0.891 c 0.372,-0.593 0.742,-1.184 1.112,-1.773 0.369,-0.589 0.738,-1.176 1.105,-1.761 0.36,-0.589 0.789,-1.131 1.178,-1.696 0.797,-1.116 1.588,-2.224 2.373,-3.323 0.848,-1.05 1.688,-2.091 2.521,-3.123 0.421,-0.511 0.82,-1.037 1.254,-1.53 0.444,-0.482 0.887,-0.961 1.327,-1.439 0.882,-0.951 1.754,-1.892 2.616,-2.821 0.913,-0.879 1.815,-1.746 2.705,-2.602 0.445,-0.427 0.887,-0.852 1.325,-1.273 0.437,-0.423 0.915,-0.795 1.364,-1.19 0.912,-0.776 1.811,-1.54 2.694,-2.292 0.868,-0.769 1.802,-1.425 2.692,-2.1 0.894,-0.67 1.772,-1.327 2.631,-1.97 0.215,-0.161 0.428,-0.321 0.641,-0.48 0.221,-0.147 0.44,-0.294 0.659,-0.44 0.437,-0.29 0.869,-0.577 1.297,-0.861 0.856,-0.566 1.692,-1.119 2.507,-1.658 0.411,-0.264 0.805,-0.541 1.214,-0.783 0.412,-0.239 0.817,-0.474 1.218,-0.706 0.799,-0.463 1.576,-0.914 2.328,-1.35 0.752,-0.435 1.48,-0.856 2.182,-1.263 0.724,-0.367 1.422,-0.721 2.093,-1.061 1.341,-0.676 2.573,-1.296 3.686,-1.856 1.115,-0.553 2.151,-0.966 3.034,-1.358 0.887,-0.384 1.641,-0.711 2.253,-0.976 1.222,-0.529 1.873,-0.811 1.873,-0.811 0,0 -0.626,0.335 -1.801,0.964 -1.171,0.635 -2.902,1.536 -5.073,2.731 -1.066,0.632 -2.247,1.332 -3.532,2.094 -0.642,0.378 -1.311,0.772 -2.005,1.181 -0.673,0.442 -1.37,0.9 -2.09,1.374 -0.719,0.473 -1.461,0.961 -2.225,1.464 -0.382,0.251 -0.769,0.506 -1.162,0.764 -0.389,0.262 -0.764,0.558 -1.154,0.841 -0.778,0.571 -1.575,1.155 -2.392,1.754 -0.408,0.298 -0.821,0.6 -1.239,0.905 -0.208,0.153 -0.418,0.307 -0.629,0.461 -0.202,0.166 -0.405,0.333 -0.609,0.501 -0.816,0.669 -1.649,1.353 -2.499,2.05 -0.844,0.702 -1.731,1.384 -2.548,2.178 -0.838,0.766 -1.691,1.546 -2.557,2.338 -0.427,0.4 -0.883,0.778 -1.297,1.206 -0.415,0.426 -0.833,0.855 -1.254,1.286 -0.842,0.863 -1.695,1.738 -2.559,2.623 -0.81,0.933 -1.631,1.877 -2.46,2.832 -0.414,0.478 -0.829,0.958 -1.247,1.441 -0.412,0.487 -0.79,1.006 -1.19,1.512 -0.79,1.018 -1.588,2.045 -2.392,3.082 -3.046,4.274 -5.871,8.903 -8.361,13.81 -2.421,4.941 -4.478,10.151 -6.119,15.498 -1.651,5.346 -2.809,10.84 -3.644,16.293 -0.584,3.772 -0.953,7.534 -1.182,11.238 1.319,-3.99 3.18,-7.693 5.382,-10.908 0.009,-0.054 0.018,-0.109 0.027,-0.164 0.202,-1.375 0.513,-2.731 0.791,-4.091 0.291,-1.357 0.537,-2.723 0.902,-4.06 0.339,-1.342 0.677,-2.682 1.015,-4.018 0.395,-1.32 0.789,-2.636 1.181,-3.947 0.367,-1.318 0.846,-2.596 1.292,-3.877 0.461,-1.275 0.864,-2.564 1.398,-3.797 0.506,-1.242 1.009,-2.477 1.508,-3.703 0.543,-1.207 1.113,-2.392 1.662,-3.575 0.282,-0.587 0.537,-1.185 0.839,-1.756 0.305,-0.57 0.608,-1.137 0.91,-1.702 0.616,-1.123 1.171,-2.265 1.832,-3.333 0.657,-1.069 1.307,-2.127 1.949,-3.171 l 0.479,-0.781 c 0.168,-0.255 0.346,-0.501 0.518,-0.75 0.346,-0.497 0.69,-0.99 1.032,-1.48 0.342,-0.49 0.681,-0.977 1.018,-1.46 0.168,-0.241 0.336,-0.482 0.503,-0.722 l 0.54,-0.687 c 0.72,-0.911 1.428,-1.807 2.125,-2.689 0.674,-0.901 1.441,-1.699 2.159,-2.511 0.724,-0.807 1.434,-1.599 2.13,-2.374 0.743,-0.73 1.471,-1.445 2.183,-2.144 0.355,-0.349 0.707,-0.694 1.054,-1.035 0.345,-0.344 0.688,-0.681 1.057,-0.98 0.722,-0.617 1.425,-1.218 2.108,-1.802 0.341,-0.292 0.678,-0.58 1.01,-0.863 0.33,-0.285 0.654,-0.568 1,-0.812 1.354,-1.012 2.622,-1.959 3.794,-2.835 1.205,-0.828 2.348,-1.536 3.36,-2.203 0.509,-0.331 0.99,-0.643 1.443,-0.937 0.461,-0.282 0.912,-0.513 1.321,-0.746 0.824,-0.456 1.525,-0.844 2.093,-1.159 1.135,-0.629 1.74,-0.965 1.74,-0.965 0,0 -0.596,0.353 -1.713,1.014 -0.558,0.331 -1.246,0.738 -2.056,1.217 -0.402,0.244 -0.845,0.488 -1.297,0.78 -0.446,0.303 -0.92,0.625 -1.421,0.965 -0.996,0.687 -2.119,1.417 -3.303,2.267 -1.148,0.897 -2.391,1.867 -3.718,2.903 -0.339,0.25 -0.656,0.538 -0.979,0.828 -0.324,0.289 -0.652,0.583 -0.986,0.88 -0.667,0.595 -1.353,1.208 -2.057,1.836 -0.361,0.305 -0.693,0.648 -1.033,0.993 -0.341,0.343 -0.686,0.691 -1.034,1.042 -0.698,0.703 -1.412,1.422 -2.141,2.157 -0.681,0.779 -1.376,1.574 -2.084,2.385 -0.702,0.816 -1.453,1.616 -2.11,2.519 -0.681,0.884 -1.372,1.783 -2.075,2.695 l -0.526,0.688 c -0.163,0.24 -0.326,0.481 -0.49,0.723 -0.328,0.484 -0.658,0.971 -0.991,1.461 -0.332,0.49 -0.667,0.984 -1.004,1.48 -0.167,0.25 -0.341,0.496 -0.504,0.75 l -0.465,0.781 c -0.623,1.043 -1.254,2.1 -1.891,3.168 -0.332,0.526 -0.607,1.089 -0.901,1.644 -0.294,0.555 -0.59,1.114 -0.887,1.675 -0.296,0.56 -0.595,1.124 -0.894,1.69 -0.297,0.567 -0.547,1.162 -0.825,1.745 -0.538,1.175 -1.099,2.351 -1.632,3.55 -0.489,1.218 -0.983,2.444 -1.479,3.678 -0.524,1.224 -0.919,2.505 -1.37,3.772 -0.437,1.272 -0.907,2.54 -1.265,3.85 -0.384,1.302 -0.769,2.609 -1.156,3.92 -0.329,1.327 -0.659,2.658 -0.989,3.991 -0.357,1.327 -0.595,2.685 -0.878,4.033 -0.144,0.719 -0.296,1.437 -0.437,2.157 1.33,-1.717 2.754,-3.263 4.236,-4.597 0.545,-2.147 1.139,-4.287 1.781,-6.414 1.692,-5.36 3.806,-10.582 6.196,-15.575 0.632,-1.232 1.263,-2.458 1.89,-3.679 0.303,-0.615 0.665,-1.198 1.011,-1.786 0.348,-0.588 0.695,-1.174 1.041,-1.758 0.346,-0.584 0.69,-1.166 1.034,-1.746 0.374,-0.561 0.747,-1.12 1.119,-1.678 0.756,-1.106 1.468,-2.23 2.244,-3.297 1.606,-2.093 3.114,-4.207 4.839,-6.075 0.417,-0.479 0.832,-0.955 1.244,-1.428 l 0.618,-0.705 0.656,-0.664 c 0.871,-0.882 1.732,-1.753 2.581,-2.613 l 0.637,-0.639 0.669,-0.597 c 0.445,-0.395 0.887,-0.788 1.326,-1.178 0.438,-0.39 0.873,-0.776 1.304,-1.16 0.432,-0.383 0.853,-0.771 1.313,-1.106 0.9,-0.692 1.785,-1.372 2.653,-2.04 0.434,-0.333 0.864,-0.664 1.289,-0.991 0.447,-0.298 0.888,-0.594 1.326,-0.886 1.758,-1.155 3.39,-2.339 5.087,-3.235 1.676,-0.927 3.213,-1.895 4.775,-2.586 0.767,-0.37 1.51,-0.728 2.227,-1.073 0.722,-0.333 1.393,-0.705 2.085,-0.962 1.368,-0.541 2.625,-1.039 3.76,-1.489 0.57,-0.218 1.097,-0.451 1.613,-0.621 0.518,-0.164 1.004,-0.317 1.456,-0.46 0.902,-0.284 1.67,-0.526 2.292,-0.722 1.243,-0.392 1.906,-0.601 1.906,-0.601 0,0 -0.647,0.256 -1.86,0.734" />
      </g>
    </g>
  </g>
</svg>
