<svg width="22" height="18" viewBox="0 0 22 18" fill="none" xmlns="http://www.w3.org/2000/svg">
<path d="M4.2587 18C4.03371 18 3.80647 17.9513 3.59065 17.8521C3.02064 17.5899 2.66653 17.0373 2.66653 16.4098V14.6659H1.91657C0.85979 14.6659 0 13.8062 0 12.7494V1.91657C0 0.85979 0.85979 0 1.91657 0H19.4157C20.4725 0 21.3322 0.85979 21.3322 1.91657V12.7494C21.3322 13.8062 20.4725 14.6659 19.4157 14.6659H8.27345L5.3219 17.5831C5.31065 17.5942 5.29906 17.6049 5.28711 17.6151C4.99108 17.8689 4.62797 18 4.2587 18ZM1.91657 1.33327C1.59492 1.33327 1.33327 1.59492 1.33327 1.91657V12.7494C1.33327 13.071 1.59492 13.3327 1.91657 13.3327H3.33316C3.70131 13.3327 3.9998 13.6311 3.9998 13.9993V16.4098C3.9998 16.5515 4.0925 16.6154 4.14779 16.6408C4.20079 16.6652 4.30299 16.6926 4.40615 16.6137L7.53099 13.5252C7.65578 13.4019 7.82414 13.3327 7.99959 13.3327H19.4157C19.7373 13.3327 19.999 13.071 19.999 12.7494V1.91661C19.999 1.59496 19.7373 1.33331 19.4157 1.33331H1.91657V1.33327Z" fill="#BDBDC2"/>
<path d="M13.344 11.9994C13.2368 11.9994 13.1294 11.9736 13.0311 11.9214L10.666 10.6643L8.30089 11.9215C8.07652 12.0407 7.80391 12.0221 7.59788 11.8734C7.39185 11.7247 7.28827 11.4718 7.33077 11.2213L7.78412 8.54893L5.86497 6.6576C5.68485 6.48007 5.62069 6.21592 5.69931 5.97556C5.77793 5.73519 5.9858 5.55999 6.23599 5.52325L8.88219 5.13447L10.0669 2.70747C10.1787 2.47848 10.4112 2.33328 10.666 2.33328C10.9208 2.33328 11.1533 2.47853 11.265 2.70747L12.4498 5.13447L15.096 5.52325C15.3462 5.55999 15.5541 5.73519 15.6326 5.97556C15.7113 6.21592 15.6471 6.48007 15.467 6.6576L13.5478 8.54893L14.0012 11.2213C14.0437 11.4718 13.9401 11.7247 13.7341 11.8734C13.6183 11.9569 13.4815 11.9994 13.344 11.9994ZM10.666 9.24272C10.7736 9.24272 10.8811 9.26872 10.9789 9.32072L12.4601 10.108L12.1754 8.42943C12.1389 8.21482 12.2096 7.99591 12.3646 7.84313L13.5776 6.64777L11.9081 6.40249C11.6904 6.37049 11.5025 6.23313 11.4059 6.03534L10.666 4.51955L9.9261 6.03534C9.82956 6.23313 9.64165 6.37049 9.42391 6.40249L7.75441 6.64777L8.96739 7.84313C9.12243 7.99591 9.19309 8.21482 9.15668 8.42943L8.87194 10.108L10.3531 9.32072C10.4509 9.26872 10.5585 9.24272 10.666 9.24272Z" fill="#BDBDC2"/>
</svg>
