<svg width="23" height="22" viewBox="0 0 23 22" fill="none" xmlns="http://www.w3.org/2000/svg">
<path d="M19.8037 22C18.9659 22 18.1782 21.6737 17.5857 21.0813L15.0301 18.5256C14.1594 17.6549 13.5717 16.5565 13.3303 15.3491L12.8437 12.9144C12.7873 12.6326 12.8756 12.3414 13.0788 12.1383C13.2819 11.9351 13.5733 11.847 13.8549 11.9032L16.2897 12.3899C17.4971 12.6312 18.5955 13.2189 19.4662 14.0897L22.0218 16.6453C22.6142 17.2377 22.9405 18.0254 22.9405 18.8632C22.9405 19.701 22.6142 20.4887 22.0217 21.0812C21.4292 21.6737 20.6415 22 19.8037 22ZM14.7816 13.8412L15.0157 15.0122C15.1903 15.8858 15.6155 16.6804 16.2454 17.3102L18.8011 19.8659C19.0688 20.1337 19.425 20.2812 19.8037 20.2812C20.1825 20.2812 20.5386 20.1337 20.8064 19.8659C21.0742 19.5981 21.2217 19.242 21.2217 18.8632C21.2217 18.4845 21.0742 18.1284 20.8064 17.8606L18.2507 15.305C17.6208 14.6751 16.8262 14.2499 15.9527 14.0752L14.7816 13.8412ZM14.3245 21.0218C14.6623 20.6885 14.666 20.1444 14.3326 19.8065C13.9993 19.4687 13.4551 19.465 13.1173 19.7984C12.8018 20.1098 12.3838 20.2813 11.9405 20.2813C11.0164 20.2813 10.2647 19.5295 10.2647 18.6055V8.5508C10.2647 6.67905 8.74194 5.15628 6.87019 5.15628H4.37792C3.43022 5.15628 2.65918 4.38524 2.65918 3.43754C2.65918 2.48983 3.43022 1.71875 4.37792 1.71875H19.5029C20.4506 1.71875 21.2217 2.48979 21.2217 3.43749C21.2217 4.3852 20.4506 5.15624 19.5029 5.15624H17.0108C15.139 5.15624 13.6162 6.679 13.6162 8.55076V9.49607C13.6162 9.97071 14.001 10.3555 14.4756 10.3555C14.9503 10.3555 15.335 9.97071 15.335 9.49607V8.55076C15.335 7.62671 16.0867 6.87499 17.0108 6.87499H19.503C21.3984 6.87499 22.9405 5.33294 22.9405 3.43749C22.9405 1.54205 21.3984 0 19.5029 0H4.37792C2.48248 0 0.94043 1.54205 0.94043 3.43749C0.94043 5.33294 2.48248 6.87499 4.37792 6.87499H6.87011C7.79416 6.87499 8.54587 7.62671 8.54587 8.55076V18.6054C8.54587 20.4772 10.0686 22 11.9404 22C12.8386 22 13.6852 21.6526 14.3245 21.0218Z" fill="#BDBDC2"/>
</svg>
