<svg width="23" height="22" viewBox="0 0 23 22" fill="none" xmlns="http://www.w3.org/2000/svg">
<path d="M22.6798 10.1224L13.3429 0.723955C13.3309 0.711858 13.3185 0.700119 13.3058 0.688738C12.2863 -0.226674 10.7457 -0.229945 9.72225 0.681166C9.70952 0.692502 9.69715 0.704196 9.6851 0.716204L0.26309 10.1197C-0.0871958 10.4693 -0.0877783 11.0367 0.261836 11.387C0.611494 11.7373 1.17886 11.7378 1.5291 11.3882L2.24025 10.6785V18.4156C2.24025 20.392 3.84821 22 5.82465 22H9.05062C9.54554 22 9.94672 21.5988 9.94672 21.1039V13.8007H13.0831V21.1039C13.0831 21.5988 13.4843 22 13.9792 22H17.1155C19.092 22 20.6999 20.392 20.6999 18.4156C20.6999 17.9207 20.2988 17.5195 19.8038 17.5195C19.3089 17.5195 18.9077 17.9207 18.9077 18.4156C18.9077 19.4038 18.1038 20.2078 17.1155 20.2078H14.8753V12.9046C14.8753 12.4097 14.4741 12.0085 13.9792 12.0085H9.05062C8.5557 12.0085 8.15452 12.4097 8.15452 12.9046V20.2078H5.82465C4.83643 20.2078 4.03245 19.4038 4.03245 18.4156V8.91692C4.03245 8.90796 4.03232 8.89904 4.03205 8.89017L10.93 2.00583C11.2657 1.72073 11.7581 1.72181 12.0926 2.00829L18.9077 8.8684V13.9351C18.9077 14.43 19.3089 14.8312 19.8038 14.8312C20.2988 14.8312 20.6999 14.43 20.6999 13.9351V10.6724L21.4084 11.3855C21.5835 11.5619 21.8137 11.6501 22.0441 11.6501C22.2725 11.6501 22.5009 11.5633 22.6757 11.3897C23.0268 11.0409 23.0286 10.4735 22.6798 10.1224Z" fill="#BDBDC2"/>
</svg>
