<svg width="20" height="20" viewBox="0 0 20 20" fill="none" xmlns="http://www.w3.org/2000/svg">
<path d="M17.0711 2.92895C15.1823 1.04016 12.6711 0 10 0C7.32891 0 4.81766 1.04016 2.92895 2.92895C1.04016 4.81766 0 7.32891 0 10C0 12.6711 1.04016 15.1823 2.92895 17.0711C4.8177 18.9598 7.32891 20 10 20C12.6711 20 15.1823 18.9598 17.0711 17.0711C18.9598 15.1823 20 12.6711 20 10C20 7.32891 18.9598 4.81766 17.0711 2.92895ZM1.21422 10C1.21422 5.15551 5.15551 1.21422 10 1.21422C12.2042 1.21422 14.2213 2.03035 15.7654 3.37605L13.6787 5.46273C12.5469 4.91164 11.2959 4.62004 10 4.62004C7.7527 4.62004 5.63984 5.49519 4.0507 7.08434C3.81359 7.32141 3.81359 7.70582 4.0507 7.94289C4.28777 8.17996 4.67219 8.17996 4.90926 7.94289C6.26902 6.58312 8.07699 5.83422 10 5.83422C10.9632 5.83422 11.8974 6.02215 12.7609 6.38047L11.424 7.71742C10.9652 7.59531 10.4875 7.53199 10 7.53199C8.53047 7.53199 7.14891 8.1043 6.10977 9.1434C5.87266 9.38047 5.87266 9.76488 6.10977 10.002C6.22832 10.1205 6.38367 10.1798 6.53902 10.1798C6.69438 10.1798 6.84977 10.1205 6.96828 10.002C7.77809 9.19215 8.85473 8.74617 9.99992 8.74617C10.127 8.74617 10.2533 8.75199 10.3785 8.76289L3.37605 15.7654C2.03035 14.2213 1.21422 12.2043 1.21422 10ZM11.0545 11.9791C11.636 12.5605 11.636 13.5066 11.0545 14.0881C10.473 14.6695 9.52695 14.6696 8.94551 14.0881C8.36402 13.5066 8.36402 12.5605 8.94551 11.9791C9.23621 11.6884 9.61812 11.543 10 11.543C10.3819 11.543 10.7638 11.6884 11.0545 11.9791ZM10 18.7858C7.79578 18.7858 5.77867 17.9696 4.23461 16.6239L7.33984 13.5187C7.43449 14.0421 7.68313 14.5429 8.08695 14.9467C8.61441 15.4741 9.30719 15.7379 10 15.7379C10.6929 15.7379 11.3857 15.4741 11.9131 14.9467C12.968 13.8918 12.968 12.1754 11.9131 11.1205C11.5094 10.7167 11.0086 10.468 10.4852 10.3734L11.7441 9.11449C12.2179 9.32559 12.6539 9.62414 13.0317 10.002C13.2687 10.2391 13.6532 10.239 13.8902 10.002C14.1273 9.76488 14.1273 9.38047 13.8902 9.1434C13.5169 8.77004 13.0991 8.4573 12.6491 8.20938L13.8871 6.97137C14.317 7.2482 14.7206 7.5727 15.0907 7.94285C15.2093 8.06141 15.3646 8.1207 15.52 8.1207C15.6754 8.1207 15.8307 8.06141 15.9493 7.94285C16.1864 7.70578 16.1864 7.32137 15.9493 7.0843C15.5804 6.71547 15.1831 6.38566 14.7627 6.09574L16.6239 4.23453C17.9696 5.77863 18.7857 7.7957 18.7857 9.99992C18.7858 14.8445 14.8445 18.7858 10 18.7858Z" fill="#BDBDC2"/>
</svg>
