<svg width="20" height="20" viewBox="0 0 20 20" fill="none" xmlns="http://www.w3.org/2000/svg">
<path d="M10 5.89844H2.92969C2.60609 5.89844 2.34375 6.16078 2.34375 6.48438C2.34375 8.74254 4.21422 10.5859 6.48438 10.5859C8.74598 10.5859 10.5859 8.74598 10.5859 6.48438C10.5859 6.16078 10.3236 5.89844 10 5.89844ZM6.48438 9.41406C5.0507 9.41406 3.85113 8.4059 3.57527 7.06992H9.3552C9.08297 8.4059 7.89918 9.41406 6.48438 9.41406Z" fill="#BDBDC2"/>
<path d="M4.14062 4.72656H5.3125C5.63609 4.72656 5.89844 4.46422 5.89844 4.14062C5.89844 3.81703 5.63609 3.55469 5.3125 3.55469H4.14062C3.81703 3.55469 3.55469 3.81703 3.55469 4.14062C3.55469 4.46422 3.81703 4.72656 4.14062 4.72656Z" fill="#BDBDC2"/>
<path d="M7.65625 4.72656H8.82812C9.15172 4.72656 9.41406 4.46422 9.41406 4.14062C9.41406 3.81703 9.15172 3.55469 8.82812 3.55469H7.65625C7.33266 3.55469 7.07031 3.81703 7.07031 4.14062C7.07031 4.46422 7.33266 4.72656 7.65625 4.72656Z" fill="#BDBDC2"/>
<path d="M13.5156 7.07031C13.3098 7.07031 13.1044 7.08066 12.9001 7.10004C12.9194 6.89734 12.9297 6.69203 12.9297 6.48438C12.9297 2.90887 10.0383 0 6.48438 0C2.92109 0 0 2.92176 0 6.48438C0 10.0383 2.90887 12.9297 6.48438 12.9297C6.69203 12.9297 6.89734 12.9194 7.10004 12.9001C7.08066 13.1044 7.07031 13.3098 7.07031 13.5156C7.07031 17.0911 9.96168 20 13.5156 20C17.0789 20 20 17.0782 20 13.5156C20 9.96168 17.0911 7.07031 13.5156 7.07031ZM1.17188 6.48438C1.17188 3.55504 3.55504 1.17188 6.48438 1.17188C9.39215 1.17188 11.7578 3.55504 11.7578 6.48438C11.7578 9.39215 9.39215 11.7578 6.48438 11.7578C3.55504 11.7578 1.17188 9.39215 1.17188 6.48438ZM13.5156 18.8281C10.6079 18.8281 8.24219 16.445 8.24219 13.5156C8.24219 13.2302 8.26551 12.9456 8.31074 12.6657C10.3986 12.0477 12.0477 10.3986 12.6657 8.31074C12.9456 8.26551 13.2302 8.24219 13.5156 8.24219C16.445 8.24219 18.8281 10.6079 18.8281 13.5156C18.8281 16.445 16.445 18.8281 13.5156 18.8281Z" fill="#BDBDC2"/>
<path d="M13.5157 14.1016C12.3527 14.1016 11.2393 14.5997 10.461 15.4684C10.245 15.7094 10.2653 16.0798 10.5063 16.2958C10.7473 16.5117 11.1177 16.4914 11.3337 16.2504C11.8901 15.6295 12.6854 15.2734 13.5157 15.2734C14.346 15.2734 15.1413 15.6295 15.6976 16.2504C15.9127 16.4904 16.2831 16.5125 16.5251 16.2957C16.766 16.0798 16.7863 15.7093 16.5704 15.4683C15.792 14.5997 14.6786 14.1016 13.5157 14.1016Z" fill="#BDBDC2"/>
<path d="M11.1719 12.9297H12.3438C12.6673 12.9297 12.9297 12.6673 12.9297 12.3438C12.9297 12.0202 12.6673 11.7578 12.3438 11.7578H11.1719C10.8483 11.7578 10.5859 12.0202 10.5859 12.3438C10.5859 12.6673 10.8483 12.9297 11.1719 12.9297Z" fill="#BDBDC2"/>
<path d="M14.6875 12.9297H15.8594C16.183 12.9297 16.4453 12.6673 16.4453 12.3438C16.4453 12.0202 16.183 11.7578 15.8594 11.7578H14.6875C14.3639 11.7578 14.1016 12.0202 14.1016 12.3438C14.1016 12.6673 14.3639 12.9297 14.6875 12.9297Z" fill="#BDBDC2"/>
</svg>
