<svg width="19" height="20" viewBox="0 0 19 20" fill="none" xmlns="http://www.w3.org/2000/svg">
<path d="M13.1438 5.35709C13.4306 5.64386 13.7649 5.86922 14.1376 6.02681C14.5242 6.19032 14.934 6.27322 15.3556 6.27322C15.7772 6.27322 16.1871 6.19032 16.5737 6.02681C16.9463 5.86919 17.2807 5.64386 17.5675 5.35709C17.8543 5.07028 18.0796 4.73592 18.2372 4.36326C18.4007 3.97668 18.4836 3.56687 18.4836 3.14525C18.4836 2.72366 18.4007 2.31382 18.2372 1.92724C18.0796 1.55458 17.8543 1.22022 17.5675 0.933409C17.2806 0.6466 16.9463 0.421307 16.5737 0.263682C16.187 0.100181 15.7772 0.0172729 15.3556 0.0172729C14.934 0.0172729 14.5242 0.100181 14.1376 0.263682C13.7649 0.421307 13.4306 0.646635 13.1438 0.933409C12.857 1.22022 12.6317 1.55458 12.474 1.92724C12.3105 2.31382 12.2276 2.72362 12.2276 3.14525C12.2276 3.44332 12.2692 3.73542 12.3513 4.01763L5.50081 7.95361C5.45474 7.90101 5.40695 7.84972 5.35718 7.79992C5.07037 7.51311 4.73605 7.28778 4.36339 7.13016C3.97681 6.96666 3.567 6.88375 3.14534 6.88375C2.72368 6.88375 2.31391 6.96666 1.92733 7.13016C1.55468 7.28778 1.22031 7.51311 0.933505 7.79992C0.646696 8.08673 0.421369 8.42109 0.263777 8.79375C0.100277 9.18036 0.017334 9.59013 0.017334 10.0118C0.017334 10.4334 0.100242 10.8432 0.263777 11.2298C0.421403 11.6025 0.646731 11.9368 0.933505 12.2236C1.22028 12.5104 1.55468 12.7357 1.92733 12.8934C2.31391 13.0569 2.72368 13.1398 3.14534 13.1398C3.567 13.1398 3.97681 13.0569 4.36339 12.8934C4.73605 12.7357 5.07041 12.5104 5.35718 12.2236C5.40799 12.1728 5.45675 12.1205 5.50368 12.0667L12.35 15.9868C12.2688 16.2677 12.2277 16.5583 12.2277 16.8548C12.2277 17.2764 12.3105 17.6862 12.4741 18.0728C12.6317 18.4454 12.857 18.7798 13.1438 19.0666C13.4307 19.3534 13.765 19.5787 14.1376 19.7364C14.5243 19.8998 14.934 19.9827 15.3556 19.9827C15.7773 19.9827 16.1871 19.8999 16.5737 19.7364C16.9463 19.5787 17.2807 19.3534 17.5675 19.0666C17.8543 18.7798 18.0796 18.4454 18.2372 18.0728C18.4007 17.6862 18.4837 17.2764 18.4837 16.8548C18.4837 16.4332 18.4007 16.0234 18.2372 15.6368C18.0796 15.2641 17.8543 14.9297 17.5675 14.643C17.2807 14.3562 16.9463 14.1309 16.5737 13.9732C16.1871 13.8097 15.7773 13.7268 15.3556 13.7268C14.934 13.7268 14.5242 13.8097 14.1376 13.9732C13.765 14.1308 13.4306 14.3562 13.1438 14.643C13.1243 14.6625 13.1051 14.6823 13.0861 14.7022L6.18519 10.7509C6.24367 10.5103 6.27339 10.2632 6.27339 10.0118C6.27339 9.75892 6.24332 9.51037 6.18419 9.26846L13.0893 5.30114C13.1072 5.32 13.1254 5.33863 13.1438 5.35709ZM14.4463 15.4811C14.707 15.3081 15.0195 15.2072 15.3556 15.2072C16.2655 15.2072 17.0032 15.9449 17.0032 16.8547C17.0032 17.7646 16.2655 18.5023 15.3556 18.5023C14.4458 18.5023 13.7082 17.7646 13.7082 16.8547C13.7082 16.8249 13.709 16.7953 13.7106 16.7659C13.7392 16.2291 14.0247 15.7607 14.4463 15.4811ZM3.14538 11.6592C2.2355 11.6592 1.4979 10.9216 1.4979 10.0118C1.4979 9.10184 2.2355 8.36428 3.14538 8.36428C3.53148 8.36428 3.88626 8.49743 4.16713 8.71989C4.54815 9.02163 4.79286 9.48798 4.79286 10.0118C4.79286 10.5348 4.54884 11.0006 4.16875 11.3024C3.88761 11.5256 3.5322 11.6592 3.14538 11.6592ZM13.7082 3.14525C13.7082 2.23537 14.4458 1.49776 15.3556 1.49776C16.2655 1.49776 17.0031 2.23537 17.0031 3.14525C17.0031 4.05513 16.2655 4.79273 15.3556 4.79273C15.0203 4.79273 14.7086 4.6923 14.4484 4.52023C14.0262 4.24113 13.7401 3.77312 13.7108 3.23652C13.7092 3.20631 13.7082 3.17587 13.7082 3.14525Z" fill="#0088C7"/>
<path d="M15.3555 20C14.9315 20 14.5195 19.9166 14.1308 19.7523C13.7562 19.5938 13.42 19.3672 13.1315 19.0788C12.8431 18.7904 12.6165 18.4542 12.4581 18.0795C12.2937 17.6908 12.2103 17.2788 12.2103 16.8548C12.2103 16.5626 12.2504 16.2735 12.3296 15.9951L5.50725 12.0887C5.46219 12.1399 5.41581 12.1893 5.36929 12.2358C5.08103 12.5241 4.7448 12.7507 4.37001 12.9093C3.98118 13.0737 3.56913 13.1571 3.14525 13.1571C2.72142 13.1571 2.30933 13.0737 1.92054 12.9093C1.54577 12.7507 1.20955 12.5241 0.921217 12.2358C0.632818 11.9474 0.406246 11.6112 0.247791 11.2365C0.0833574 10.8477 0 10.4357 0 10.0118C0 9.58786 0.0833919 9.17581 0.247791 8.78705C0.406246 8.41236 0.632853 8.07613 0.921217 7.78773C1.20955 7.49936 1.54577 7.27279 1.92054 7.11427C2.3093 6.94984 2.72135 6.86648 3.14525 6.86648C3.5692 6.86648 3.98125 6.94984 4.37001 7.11427C4.7447 7.27276 5.08089 7.49933 5.36929 7.78773C5.41477 7.83324 5.46019 7.88159 5.50435 7.9316L12.3309 4.00941C12.2508 3.72966 12.2103 3.43901 12.2103 3.14529C12.2103 2.72131 12.2936 2.3093 12.458 1.92057C12.6165 1.54581 12.8432 1.20958 13.1315 0.921251C13.4198 0.632887 13.756 0.406315 14.1308 0.247826C14.5195 0.0833574 14.9316 0 15.3555 0C15.7795 0 16.1915 0.0833574 16.5803 0.247791C16.955 0.406246 17.2912 0.632853 17.5796 0.921217C17.8679 1.20951 18.0945 1.54574 18.253 1.92054C18.4174 2.30933 18.5008 2.72138 18.5008 3.14526C18.5008 3.5692 18.4174 3.98125 18.253 4.37001C18.0945 4.74474 17.8679 5.08096 17.5796 5.36933C17.2912 5.65769 16.955 5.88426 16.5803 6.04275C16.1915 6.20719 15.7795 6.29054 15.3555 6.29054C14.9316 6.29054 14.5195 6.20719 14.1308 6.04275C13.7561 5.88433 13.4199 5.65773 13.1315 5.36933C13.1162 5.35398 13.101 5.3385 13.0861 5.32288L6.20394 9.277C6.26145 9.51657 6.29058 9.7637 6.29058 10.0118C6.29058 10.2585 6.26179 10.5042 6.20494 10.7424L13.0829 14.6805C13.0989 14.6638 13.1151 14.6471 13.1315 14.6307C13.4198 14.3424 13.756 14.1158 14.1308 13.9572C14.5195 13.7929 14.9316 13.7095 15.3555 13.7095C15.7795 13.7095 16.1915 13.7929 16.5803 13.9572C16.955 14.1158 17.2912 14.3424 17.5796 14.6307C17.8679 14.919 18.0944 15.2552 18.253 15.63C18.4174 16.0189 18.5008 16.4309 18.5008 16.8547C18.5008 17.2787 18.4174 17.6907 18.253 18.0795C18.0945 18.4542 17.8679 18.7903 17.5796 19.0787C17.2912 19.3672 16.955 19.5938 16.5803 19.7522C16.1916 19.9166 15.7795 20 15.3555 20ZM5.49989 12.0447L5.51216 12.0517L12.3703 15.9786L12.3665 15.9916C12.2858 16.2709 12.2449 16.5613 12.2449 16.8548C12.2449 17.2742 12.3273 17.6817 12.4899 18.0661C12.6466 18.4367 12.8707 18.7692 13.1559 19.0544C13.4413 19.3397 13.7738 19.5638 14.1442 19.7204C14.5287 19.8831 14.9362 19.9655 15.3556 19.9655C15.7749 19.9655 16.1824 19.8831 16.5669 19.7204C16.9375 19.5637 17.27 19.3396 17.5552 19.0544C17.8404 18.7692 18.0645 18.4367 18.2212 18.0661C18.3838 17.6816 18.4663 17.2741 18.4663 16.8548C18.4663 16.4356 18.3838 16.028 18.2212 15.6435C18.0644 15.2728 17.8403 14.9403 17.5552 14.6552C17.27 14.37 16.9375 14.1459 16.5669 13.9891C16.1824 13.8265 15.7749 13.7441 15.3556 13.7441C14.9362 13.7441 14.5287 13.8265 14.1442 13.9891C13.7736 14.1459 13.4411 14.37 13.1559 14.6552C13.1365 14.6746 13.1174 14.6943 13.0985 14.7141L13.0892 14.7239L13.0774 14.7172L6.16523 10.7594L6.16831 10.7468C6.22651 10.5074 6.25602 10.2601 6.25602 10.0118C6.25602 9.76207 6.22616 9.51339 6.16731 9.27258L6.16423 9.25996L6.1755 9.2535L13.0924 5.2794L13.1018 5.28925C13.1196 5.30802 13.1376 5.32654 13.156 5.34493C13.4413 5.63015 13.7738 5.85427 14.1443 6.01096C14.5288 6.17356 14.9363 6.25602 15.3556 6.25602C15.7749 6.25602 16.1825 6.17356 16.5669 6.01096C16.9375 5.8542 17.27 5.63011 17.5552 5.34493C17.8404 5.05974 18.0645 4.72721 18.2212 4.3566C18.3839 3.97212 18.4663 3.5646 18.4663 3.14532C18.4663 2.72608 18.3839 2.31856 18.2213 1.93405C18.0645 1.56337 17.8404 1.23087 17.5552 0.945719C17.27 0.6605 16.9375 0.436417 16.5669 0.27969C16.1824 0.117018 15.7749 0.0345594 15.3555 0.0345594C14.9362 0.0345594 14.5287 0.117018 14.1442 0.27962C13.7736 0.436382 13.4411 0.660466 13.1559 0.94565C12.8707 1.2308 12.6466 1.56333 12.4899 1.93398C12.3273 2.31842 12.2448 2.72595 12.2448 3.14526C12.2448 3.44029 12.2862 3.73218 12.3679 4.0128L12.3716 4.02583L5.49706 7.97563L5.48773 7.96498C5.44111 7.91173 5.39304 7.86034 5.34486 7.81213C5.05964 7.52691 4.72711 7.30282 4.35656 7.14606C3.97209 6.98346 3.56456 6.901 3.14525 6.901C2.72598 6.901 2.31845 6.98346 1.93398 7.14606C1.56333 7.30282 1.23083 7.52694 0.94565 7.81213C0.660431 8.09735 0.436348 8.42988 0.27962 8.80046C0.116984 9.18493 0.0345594 9.59246 0.0345594 10.0118C0.0345594 10.431 0.117018 10.8385 0.27962 11.2231C0.436348 11.5936 0.660431 11.9261 0.94565 12.2114C1.2308 12.4965 1.56337 12.7206 1.93398 12.8774C2.31852 13.0401 2.72605 13.1225 3.14525 13.1225C3.56446 13.1225 3.97202 13.0401 4.35656 12.8774C4.72725 12.7206 5.05974 12.4965 5.34486 12.2114C5.39404 12.1622 5.44308 12.1097 5.49056 12.0553L5.49989 12.0447ZM15.3555 18.5195C14.4376 18.5195 13.6908 17.7727 13.6908 16.8547C13.6908 16.8258 13.6916 16.7956 13.6932 16.7649C13.7211 16.2423 13.999 15.7569 14.4367 15.4667C14.7095 15.2856 15.0272 15.1899 15.3555 15.1899C16.2735 15.1899 17.0203 15.9367 17.0203 16.8547C17.0203 17.7727 16.2735 18.5195 15.3555 18.5195ZM15.3555 15.2245C15.034 15.2245 14.7229 15.3182 14.4558 15.4955C14.0272 15.7798 13.755 16.255 13.7278 16.7668C13.7261 16.7968 13.7254 16.8264 13.7254 16.8547C13.7254 17.7537 14.4567 18.485 15.3556 18.485C16.2545 18.485 16.9858 17.7537 16.9858 16.8547C16.9858 15.9558 16.2544 15.2245 15.3555 15.2245ZM3.14529 11.6765C2.22732 11.6765 1.48053 10.9297 1.48053 10.0118C1.48053 9.0938 2.22732 8.347 3.14529 8.347C3.52392 8.347 3.88092 8.47125 4.17775 8.70632C4.57958 9.02454 4.81002 9.50036 4.81002 10.0118C4.81002 10.5223 4.58016 10.9976 4.17938 11.3159C3.88227 11.5518 3.52468 11.6765 3.14529 11.6765ZM3.14529 8.38156C2.2464 8.38156 1.51509 9.11288 1.51509 10.0118C1.51509 10.9107 2.2464 11.6419 3.14529 11.6419C3.5168 11.6419 3.86699 11.5198 4.15792 11.2888C4.55037 10.9772 4.77549 10.5117 4.77549 10.0118C4.77549 9.511 4.54982 9.04504 4.15629 8.73341C3.86561 8.50321 3.51604 8.38156 3.14529 8.38156ZM15.3556 4.81002C15.0282 4.81002 14.7112 4.71481 14.4388 4.53465C14.0007 4.24501 13.722 3.76007 13.6935 3.23746C13.6917 3.2048 13.6908 3.17463 13.6908 3.14522C13.6908 2.22725 14.4376 1.48046 15.3556 1.48046C16.2736 1.48046 17.0204 2.22725 17.0204 3.14522C17.0204 4.06319 16.2735 4.81002 15.3556 4.81002ZM15.3556 1.51505C14.4567 1.51505 13.7254 2.24636 13.7254 3.14526C13.7254 3.17401 13.7262 3.20356 13.7279 3.23559C13.7559 3.74732 14.0288 4.22216 14.4578 4.50583C14.7246 4.68222 15.035 4.77546 15.3556 4.77546C16.2544 4.77546 16.9858 4.04415 16.9858 3.14526C16.9858 2.24636 16.2544 1.51505 15.3556 1.51505Z" fill="#0088C7"/>
</svg>
