<svg width="25" height="24" viewBox="0 0 25 24" fill="none" xmlns="http://www.w3.org/2000/svg">
<path d="M12.9404 5.67188C9.4511 5.67188 6.6123 8.51067 6.6123 12C6.6123 15.4893 9.4511 18.3281 12.9404 18.3281C16.4298 18.3281 19.2686 15.4893 19.2686 12C19.2686 8.51067 16.4298 5.67188 12.9404 5.67188ZM12.9404 16.9219C10.2265 16.9219 8.01855 14.7139 8.01855 12C8.01855 9.28608 10.2265 7.07812 12.9404 7.07812C13.4315 7.07812 13.9059 7.15078 14.3538 7.28527C13.0257 8.47406 12.2373 10.1884 12.2373 12C12.2373 13.8116 13.0257 15.5259 14.3538 16.7147C13.9059 16.8492 13.4315 16.9219 12.9404 16.9219ZM15.7561 16.0346C14.4439 15.1186 13.6436 13.6084 13.6436 12C13.6436 10.3916 14.4438 8.88136 15.7561 7.96542C17.0285 8.85605 17.8623 10.3324 17.8623 12C17.8623 13.6676 17.0285 15.1439 15.7561 16.0346Z" fill="#BDBDC2"/>
<path d="M4.50293 12.7031H1.64355C1.25524 12.7031 0.94043 12.3883 0.94043 12C0.94043 11.6117 1.25524 11.2969 1.64355 11.2969H4.50293C4.89124 11.2969 5.20605 11.6117 5.20605 12C5.20605 12.3883 4.89124 12.7031 4.50293 12.7031Z" fill="#BDBDC2"/>
<path d="M9.06209 4.47391L8.52392 3.17463C8.37532 2.81585 8.54567 2.40457 8.90445 2.25597H8.9045C9.26328 2.10738 9.67456 2.27772 9.82315 2.6365L10.3613 3.93579C10.5099 4.29457 10.3396 4.70585 9.98079 4.85444H9.98075C9.62196 5.00304 9.21068 4.83265 9.06209 4.47391Z" fill="#BDBDC2"/>
<path d="M4.87605 9.42074L3.57681 8.88257C3.21803 8.73398 3.04769 8.32265 3.19628 7.96391V7.96387C3.34487 7.60509 3.7562 7.43474 4.11494 7.58334L5.41417 8.12151C5.77295 8.2701 5.9433 8.68143 5.7947 9.04016V9.04021C5.64611 9.39895 5.23478 9.56934 4.87605 9.42074Z" fill="#BDBDC2"/>
<path d="M20.0859 9.04021C19.9373 8.68143 20.1077 8.2701 20.4665 8.12151L21.7657 7.58334C22.1245 7.43474 22.5358 7.60509 22.6844 7.96387V7.96391C22.833 8.3227 22.6626 8.73398 22.3039 8.88257L21.0046 9.42074C20.6458 9.56934 20.2345 9.39895 20.0859 9.04021Z" fill="#BDBDC2"/>
<path d="M15.9001 4.85444C15.5413 4.70585 15.3709 4.29452 15.5195 3.93579L16.0577 2.6365C16.2063 2.27772 16.6176 2.10738 16.9763 2.25597H16.9764C17.3352 2.40457 17.5055 2.8159 17.3569 3.17463L16.8188 4.47391C16.6702 4.83265 16.2589 5.00304 15.9001 4.85444Z" fill="#BDBDC2"/>
<path d="M12.9404 24C12.5521 24 12.2373 23.6852 12.2373 23.2969V20.4375C12.2373 20.0492 12.5521 19.7344 12.9404 19.7344C13.3287 19.7344 13.6436 20.0492 13.6436 20.4375V23.2969C13.6436 23.6852 13.3287 24 12.9404 24Z" fill="#BDBDC2"/>
<path d="M12.9404 4.26562C12.5521 4.26562 12.2373 3.95081 12.2373 3.5625V0.703125C12.2373 0.314812 12.5521 0 12.9404 0C13.3287 0 13.6436 0.314812 13.6436 0.703125V3.5625C13.6436 3.95081 13.3287 4.26562 12.9404 4.26562Z" fill="#BDBDC2"/>
<path d="M24.2373 12.7031H21.3779C20.9896 12.7031 20.6748 12.3883 20.6748 12C20.6748 11.6117 20.9896 11.2969 21.3779 11.2969H24.2373C24.6256 11.2969 24.9404 11.6117 24.9404 12C24.9404 12.3883 24.6256 12.7031 24.2373 12.7031Z" fill="#BDBDC2"/>
<path d="M4.45546 20.4853C4.18086 20.2107 4.18086 19.7656 4.45546 19.491L6.47736 17.4691C6.75196 17.1945 7.19713 17.1945 7.47172 17.4691C7.74632 17.7437 7.74632 18.1888 7.47172 18.4634L5.44982 20.4853C5.17522 20.7599 4.73005 20.7599 4.45546 20.4853Z" fill="#BDBDC2"/>
<path d="M20.4315 20.4853L18.4096 18.4634C18.135 18.1888 18.135 17.7437 18.4096 17.4691C18.6842 17.1945 19.1293 17.1945 19.4039 17.4691L21.4258 19.491C21.7004 19.7656 21.7004 20.2107 21.4258 20.4853C21.1512 20.7599 20.706 20.7599 20.4315 20.4853Z" fill="#BDBDC2"/>
<path d="M6.47732 6.53096L4.45546 4.50905C4.18086 4.23446 4.18086 3.78929 4.45546 3.51469C4.73005 3.2401 5.17522 3.2401 5.44982 3.51469L7.47172 5.5366C7.74632 5.81119 7.74632 6.25636 7.47172 6.53096C7.19708 6.80555 6.75191 6.80555 6.47732 6.53096Z" fill="#BDBDC2"/>
<path d="M18.4096 6.53096C18.135 6.25636 18.135 5.81119 18.4096 5.5366L20.4315 3.51469C20.7061 3.2401 21.1512 3.2401 21.4258 3.51469C21.7004 3.78929 21.7004 4.23446 21.4258 4.50905L19.4039 6.53096C19.1293 6.80555 18.6842 6.80555 18.4096 6.53096Z" fill="#BDBDC2"/>
<path d="M8.90449 21.744C8.54571 21.5955 8.37532 21.1841 8.52391 20.8254L9.06208 19.5261C9.21068 19.1673 9.622 18.997 9.98074 19.1456H9.98079C10.3396 19.2942 10.5099 19.7055 10.3613 20.0642L9.82314 21.3635C9.67455 21.7223 9.26322 21.8926 8.90449 21.744Z" fill="#BDBDC2"/>
<path d="M3.19628 16.0361C3.04769 15.6774 3.21803 15.266 3.57681 15.1174L4.87605 14.5793C5.23483 14.4307 5.64611 14.601 5.7947 14.9598V14.9598C5.9433 15.3186 5.77295 15.7299 5.41417 15.8785L4.11494 16.4167C3.7562 16.5653 3.34487 16.3949 3.19628 16.0361Z" fill="#BDBDC2"/>
<path d="M21.7657 16.4167L20.4665 15.8785C20.1077 15.7299 19.9373 15.3186 20.0859 14.9598V14.9598C20.2345 14.601 20.6459 14.4307 21.0046 14.5793L22.3039 15.1174C22.6626 15.266 22.833 15.6774 22.6844 16.0361V16.0361C22.5358 16.3949 22.1245 16.5653 21.7657 16.4167Z" fill="#BDBDC2"/>
<path d="M16.0577 21.3635L15.5195 20.0642C15.3709 19.7055 15.5413 19.2942 15.9001 19.1456H15.9001C16.2589 18.997 16.6702 19.1673 16.8188 19.5261L17.3569 20.8254C17.5055 21.1842 17.3352 21.5955 16.9764 21.744H16.9764C16.6176 21.8926 16.2063 21.7223 16.0577 21.3635Z" fill="#BDBDC2"/>
</svg>
